<svg width="61" height="59" viewBox="0 0 61 59" fill="none" xmlns="http://www.w3.org/2000/svg">
<path d="M30.1875 0C13.5089 0 0 13.5089 0 30.1875C0 43.5455 8.64117 54.828 20.6407 58.8279C22.1501 59.092 22.7161 58.1864 22.7161 57.394C22.7161 56.677 22.6784 54.2998 22.6784 51.7716C15.0938 53.1677 13.1316 49.9226 12.5278 48.2245C12.1882 47.3566 10.7166 44.6775 9.43359 43.9605C8.37703 43.3945 6.86766 41.9984 9.39586 41.9606C11.7731 41.9229 13.4712 44.1492 14.0372 45.0548C16.7541 49.6207 21.0935 48.3377 22.8293 47.5453C23.0934 45.5831 23.8859 44.2624 24.7537 43.5077C18.037 42.753 11.0184 40.1494 11.0184 28.6027C11.0184 25.3198 12.1882 22.6029 14.1127 20.4898C13.8108 19.7351 12.7542 16.6409 14.4145 12.4901C14.4145 12.4901 16.9427 11.6977 22.7161 15.5843C25.1311 14.9051 27.697 14.5655 30.263 14.5655C32.8289 14.5655 35.3948 14.9051 37.8098 15.5843C43.5832 11.6599 46.1114 12.4901 46.1114 12.4901C47.7717 16.6409 46.7152 19.7351 46.4133 20.4898C48.3377 22.6029 49.5075 25.282 49.5075 28.6027C49.5075 40.1871 42.4512 42.753 35.7345 43.5077C36.8288 44.4511 37.7721 46.2623 37.7721 49.0924C37.7721 53.13 37.7344 56.3752 37.7344 57.394C37.7344 58.1864 38.3004 59.1298 39.8098 58.8279C45.8026 56.8049 51.01 52.9534 54.6991 47.8155C58.3882 42.6778 60.3735 36.5126 60.375 30.1875C60.375 13.5089 46.8661 0 30.1875 0Z" fill="black"/>
</svg>
