<svg width="59" height="59" viewBox="0 0 59 59" fill="none" xmlns="http://www.w3.org/2000/svg">
<path d="M59 30.1551C59 27.7296 58.7992 25.9596 58.3645 24.124H30.1019V35.0717H46.6915C46.3571 37.7924 44.5509 41.8896 40.5372 44.6428L40.4809 45.0094L49.4171 51.7936L50.0362 51.854C55.7221 46.708 59 39.1362 59 30.1551Z" fill="#4285F4"/>
<path d="M30.1003 59C38.2277 59 45.0507 56.3777 50.0345 51.8545L40.5355 44.643C37.9936 46.3803 34.582 47.593 30.1003 47.593C22.1401 47.593 15.3838 42.4471 12.9755 35.3343L12.6224 35.3635L3.3306 42.4109L3.20908 42.7419C8.15915 52.3787 18.327 59 30.1003 59Z" fill="#34A853"/>
<path d="M12.9772 35.3345C12.3418 33.4989 11.974 31.5321 11.974 29.5C11.974 27.4677 12.3418 25.5011 12.9438 23.6655L12.9269 23.2744L3.51864 16.1141L3.21083 16.2576C1.17067 20.2566 0 24.7471 0 29.5C0 34.2527 1.17067 38.7432 3.21083 42.7421L12.9772 35.3345Z" fill="#FBBC05"/>
<path d="M30.1005 11.4066C35.7529 11.4066 39.5658 13.7994 41.7399 15.7989L50.2353 7.67C45.0178 2.91723 38.228 0 30.1005 0C18.327 0 8.15917 6.62107 3.20908 16.2576L12.9421 23.6655C15.3839 16.5528 22.1401 11.4066 30.1005 11.4066Z" fill="#EB4335"/>
</svg>
