<svg xmlns="http://www.w3.org/2000/svg" width="40" height="40" version="1.0" viewBox="0 0 30 30"><defs><clipPath id="a"><path d="M8 5.785h18.855V12H8Zm0 0"/></clipPath><clipPath id="b"><path d="M8 11h18.855v7H8Zm0 0"/></clipPath><clipPath id="c"><path d="M8 17h18.855v6.207H8Zm0 0"/></clipPath><clipPath id="d"><path d="M2.906 5.785H9v17.422H2.906Zm0 0"/></clipPath></defs><g clip-path="url(#a)"><path fill="#068241" d="M24.191 5.785H8.895v6.031h17.957V8.465a2.67 2.67 0 0 0-2.66-2.68m0 0"/></g><g clip-path="url(#b)"><path fill="#EEE" d="M8.895 11.816h17.957v5.36H8.895Zm0 0"/></g><g clip-path="url(#c)"><path fill="#141414" d="M8.895 23.207H24.19c1.47 0 2.66-1.203 2.66-2.68v-3.351H8.896Zm0 0"/></g><g clip-path="url(#d)"><path fill="#EC2028" d="M5.57 5.785a2.67 2.67 0 0 0-2.66 2.68v12.062c0 1.477 1.192 2.68 2.66 2.68h3.325V5.785Zm0 0"/></g></svg>