<svg xmlns="http://www.w3.org/2000/svg" width="40" height="40" version="1.0" viewBox="0 0 30 30"><defs><clipPath id="a"><path d="M2.512 4.957h25.402V11H2.512Zm0 0"/></clipPath><clipPath id="b"><path d="M2.512 17h25.402v6.102H2.512Zm0 0"/></clipPath><clipPath id="c"><path d="M2.512 10h25.402v8H2.512Zm0 0"/></clipPath></defs><g clip-path="url(#a)"><path fill="#D90012" d="M25.086 4.957H5.344c-1.559 0-2.82 1.25-2.82 2.793v2.79h25.382V7.75c0-1.543-1.265-2.793-2.82-2.793m0 0"/></g><g clip-path="url(#b)"><path fill="#F2A800" d="M5.344 23.102h19.742c1.555 0 2.82-1.25 2.82-2.793v-2.79H2.523v2.79c0 1.543 1.262 2.793 2.82 2.793m0 0"/></g><g clip-path="url(#c)"><path fill="#0033A0" d="M2.523 10.54h25.383v6.98H2.523Zm0 0"/></g></svg>