<svg xmlns="http://www.w3.org/2000/svg" width="40" height="40" version="1.0" viewBox="0 0 30 30"><defs><clipPath id="a"><path d="M3.387 11H27.34v8H3.387Zm0 0"/></clipPath><clipPath id="b"><path d="M3.387 6.133H27.34V12H3.387Zm0 0"/></clipPath><clipPath id="c"><path d="M3.387 18H27.34v5.555H3.387Zm0 0"/></clipPath></defs><g clip-path="url(#a)"><path fill="#E00034" d="M3.398 11.492h23.93v6.7H3.398Zm0 0"/></g><g clip-path="url(#b)"><path fill="#0098C3" d="M24.668 6.133H6.058a2.67 2.67 0 0 0-2.66 2.68v2.68h23.93v-2.68a2.67 2.67 0 0 0-2.66-2.68m0 0"/></g><path fill="#FFF" d="M15.258 17.078c-1.223 0-2.215-1-2.215-2.234 0-1.235.992-2.235 2.215-2.235.652 0 1.242.286 1.648.739a2.66 2.66 0 0 0-2.207-1.184 2.67 2.67 0 0 0-2.66 2.68 2.67 2.67 0 0 0 2.66 2.68c.918 0 1.727-.47 2.207-1.184a2.2 2.2 0 0 1-1.648.738m0 0"/><path fill="#FFF" d="m19.129 14.844-.793-.285.36-.77-.762.367-.282-.8-.28.8h-.005l-.762-.363.364.766-.793.285.793.285-.36.77.758-.368h.004l.281.801.282-.8.765.363-.363-.766Zm0 0"/><g clip-path="url(#c)"><path fill="#00AE65" d="M6.059 23.555h18.609c1.469 0 2.66-1.203 2.66-2.68v-2.684H3.398v2.684c0 1.477 1.192 2.68 2.66 2.68m0 0"/></g></svg>