<svg xmlns="http://www.w3.org/2000/svg" width="40" height="40" version="1.0" viewBox="0 0 30 30"><defs><clipPath id="a"><path d="M6 17h21.762v6.535H6Zm0 0"/></clipPath><clipPath id="b"><path d="M6 5.39h21.762V18H6Zm0 0"/></clipPath><clipPath id="c"><path d="M2.36 5.39H7v18.145H2.36Zm0 0"/></clipPath><clipPath id="d"><path d="M2.36 9H7v11H2.36Zm0 0"/></clipPath><clipPath id="e"><path d="M2.36 8H7v13H2.36Zm0 0"/></clipPath></defs><g clip-path="url(#a)"><path fill="#4AA657" d="M6.598 23.535h18.336c1.558 0 2.82-1.25 2.82-2.789v-2.793H6.598Zm0 0"/></g><g clip-path="url(#b)"><path fill="#C8313E" d="M24.934 5.39H6.598v12.563h21.156v-9.77c0-1.542-1.262-2.792-2.82-2.792m0 0"/></g><g clip-path="url(#c)"><path fill="#FFF" d="M5.184 5.39c-1.555 0-2.82 1.25-2.82 2.794v12.562c0 1.54 1.265 2.79 2.82 2.79h1.414V5.39Zm0 0"/><path fill="#C8313E" d="m2.906 22.27.438-.774.453.797-.383.61q.183.146.383.257l.558-1.004-1-1.586-.789 1.203c.13.32.32.61.551.86Zm3.676-.063-1.055-1.55-1.058 1.515.906 1.363h.457Zm-1.023-.71.449.796-.45.719-.44-.742Zm1.039-6.802v-.625l-.223.305Zm-2.243-7.89-.628-1c-.551.328-.97.836-1.188 1.445l.906 1.195Zm-1.449.113.438-.773.453.796-.453.72Zm2.715 1.633.961-1.7-.996-1.46h-.121l-.996 1.43Zm.387-1.614-.45.723-.44-.742.44-.773Zm0 0"/></g><g clip-path="url(#d)"><path fill="#C8313E" d="m5.855 12.371.618-1.016.125.055v-.437l-.993-1.528-1.19 1.637-1.06-1.68-.992 1.52v.453l.606.996.43-.625-.31-.422.235-.308.672.863-.992 1.613-.64-.87v1.085l.042-.055.672.86-.715 1.164v.82l.64-.871.993 1.613-.558.715-.114.149-.113-.149-.121-.16.308-.422-.425-.625-.61.996v.403l1.016 1.53.988-1.722.035-.066.043.066 1.137 1.82 1.016-1.777v-.273l-.09.039-.617-1.016-.43.625.309.422-.122.16-.109.149-.117-.149-.555-.715.988-1.613.743 1.004v-.797l-.817-1.324.672-.863.145.19v-1.394l-.774 1.051-.992-1.613.672-.86.23.305-.308.422Zm-.468 1.414v1.348l-.985 1.535-.925-1.543v-1.332l.925-1.543Zm0 0"/></g><g clip-path="url(#e)"><path fill="#C8313E" d="m3.797 13.64.422.762-.422.762.308.168.313-.566.316.566.309-.168-.422-.762.422-.761-.309-.168-.316.566-.313-.566Zm-1.414 6.536.441.742.45-.719-.45-.797Zm1.07 0 .438.742.453-.719-.453-.797Zm1.047 0 .438.742.453-.719-.453-.797Zm1.121 0 .441.742.45-.719-.45-.797ZM2.383 8.969l.441.742.45-.723-.45-.797Zm1.07 0 .438.742.453-.723-.453-.797Zm1.047 0 .438.742.453-.723-.453-.797Zm1.121 0 .441.742.45-.723-.45-.797Zm0 0"/></g></svg>