<svg xmlns="http://www.w3.org/2000/svg" width="40" height="40" version="1.0" viewBox="0 0 30 30"><defs><clipPath id="a"><path d="M2.547 5.527h24.68v18.145H2.547Zm0 0"/></clipPath></defs><g clip-path="url(#a)"><path fill="#DE2910" d="M27.215 20.883c0 1.543-1.227 2.789-2.738 2.789H5.297c-1.512 0-2.738-1.246-2.738-2.79V8.32c0-1.543 1.226-2.793 2.738-2.793h19.18c1.511 0 2.738 1.25 2.738 2.793Zm0 0"/></g><path fill="#FFDE02" d="m10.188 8.305.503.246.403-.395-.074.567.492.27-.551.1-.098.56-.265-.5-.555.077.387-.414Zm3.195 2.05-.246.516.386.41-.55-.078-.266.504-.098-.562-.55-.102.492-.27-.078-.562.406.394Zm-.656 2.637.183.54.559.011-.446.348.16.543-.456-.325-.461.325.164-.543-.45-.348.563-.012Zm-2.54 2.29.504.25.403-.395-.074.566.492.27-.551.097-.098.563-.265-.504-.555.078.387-.41ZM7.353 9.683l.636 1.863 1.938.039-1.543 1.191.558 1.891-1.59-1.129-1.59 1.129.563-1.89-1.543-1.192 1.938-.04Zm0 0"/></svg>