<svg xmlns="http://www.w3.org/2000/svg" width="40" height="40" version="1.0" viewBox="0 0 30 30"><defs><clipPath id="a"><path d="M2.512 6.402h24.68v18.145H2.511Zm0 0"/></clipPath></defs><g clip-path="url(#a)"><path fill="#00247D" d="M2.52 9.234v2.75h3.855Zm3.195 15.313h5.71v-4.074Zm12.562-4.074v4.074h5.707ZM2.52 18.965v2.75l3.859-2.75ZM23.988 6.402h-5.71v4.07Zm3.196 15.313v-2.75h-3.86Zm0-9.73v-2.75l-3.86 2.75ZM11.426 6.401H5.715l5.71 4.07Zm0 0"/><path fill="#CF1B2B" d="m19.742 18.965 6.653 4.746a2.8 2.8 0 0 0 .68-1.223l-4.942-3.523Zm-8.316 0H9.96l-6.656 4.742c.36.371.816.637 1.328.758l6.793-4.844Zm6.851-6.98h1.465l6.653-4.747a2.7 2.7 0 0 0-1.325-.758l-6.793 4.844Zm-8.316 0L3.305 7.237a2.8 2.8 0 0 0-.676 1.223l4.941 3.523Zm0 0"/><path fill="#EEE" d="M27.184 17.566H16.906v6.98h1.371v-4.073l5.707 4.074h.457c.766 0 1.457-.324 1.954-.836l-6.653-4.746h2.39l4.942 3.523c.063-.234.11-.476.11-.734v-.04l-3.86-2.75h3.86Zm-24.664 0v1.399h3.859l-3.86 2.75v.039c0 .762.301 1.45.786 1.953l6.656-4.742h1.465v.656l-6.793 4.844c.203.05.41.082.629.082h.453l5.71-4.074v4.074h1.372v-6.98Zm24.664-8.375c0-.761-.301-1.449-.79-1.953l-6.652 4.746h-1.465v-.66L25.07 6.48a2.8 2.8 0 0 0-.629-.078h-.453l-5.71 4.07v-4.07h-1.372v6.977h10.278v-1.395h-3.86l3.86-2.75ZM11.426 6.402v4.07l-5.711-4.07h-.453c-.766 0-1.457.32-1.957.836l6.656 4.746H7.57L2.628 8.461c-.063.234-.11.476-.11.73v.043l3.856 2.75H2.52v1.395h10.277V6.402Zm0 0"/><path fill="#CF1B2B" d="M16.906 13.379V6.402h-4.11v6.977H2.52v4.187h10.277v6.98h4.11v-6.98h10.277V13.38Zm0 0"/></g></svg>