<svg xmlns="http://www.w3.org/2000/svg" width="40" height="40" version="1.0" viewBox="0 0 30 30"><defs><clipPath id="a"><path d="M14 5.57h13.96V13H14Zm0 0"/></clipPath><clipPath id="b"><path d="M1.832 5.57H10V13H1.832Zm0 0"/></clipPath><clipPath id="c"><path d="M1.832 17h26.129v7.441H1.832Zm0 0"/></clipPath><clipPath id="d"><path d="M1.832 5.57h26.129v18.871H1.832Zm0 0"/></clipPath></defs><g clip-path="url(#a)"><path fill="#FFF" d="M25.05 5.57H14.896v7.258h13.058V8.477c0-1.606-1.3-2.907-2.902-2.907m0 0"/></g><g clip-path="url(#b)"><path fill="#FFF" d="M9.816 5.57H4.738a2.905 2.905 0 0 0-2.902 2.907v4.351h7.98Zm0 0"/></g><g clip-path="url(#c)"><path fill="#FFF" d="M25.05 24.441H14.896v-7.257h13.058v4.355c0 1.606-1.3 2.902-2.902 2.902m-15.234 0H4.738a2.9 2.9 0 0 1-2.902-2.902v-4.355h7.98Zm0 0"/></g><g clip-path="url(#d)"><path fill="#003580" d="M14.895 5.57H9.816v7.258h-7.98v4.356h7.98v7.257h5.079v-7.257h13.058v-4.356H14.895Zm0 0"/></g></svg>