<svg xmlns="http://www.w3.org/2000/svg" width="40" height="40" version="1.0" viewBox="0 0 30 30"><defs><clipPath id="a"><path d="M19 5.262h8.582v18.144H19Zm0 0"/></clipPath><clipPath id="b"><path d="M2.18 5.262H11v18.144H2.18Zm0 0"/></clipPath><clipPath id="c"><path d="M10 5.262h10v18.144H10Zm0 0"/></clipPath></defs><g clip-path="url(#a)"><path fill="#ED2939" d="M27.574 20.617c0 1.54-1.262 2.79-2.82 2.79h-5.64V5.261h5.64c1.558 0 2.82 1.25 2.82 2.793Zm0 0"/></g><g clip-path="url(#b)"><path fill="#002495" d="M5.012 5.262c-1.559 0-2.82 1.25-2.82 2.793v12.562c0 1.54 1.261 2.79 2.82 2.79h5.64V5.261Zm0 0"/></g><g clip-path="url(#c)"><path fill="#EEE" d="M10.652 5.262h8.461v18.144h-8.46Zm0 0"/></g></svg>