<svg xmlns="http://www.w3.org/2000/svg" width="40" height="40" version="1.0" viewBox="0 0 30 30"><defs><clipPath id="a"><path d="M2.613 18h24.68v5.723H2.613Zm0 0"/></clipPath><clipPath id="b"><path d="M2.613 11h24.68v8H2.613Zm0 0"/></clipPath><clipPath id="c"><path d="M2.613 5.578h24.68V12H2.613Zm0 0"/></clipPath></defs><g clip-path="url(#a)"><path fill="#FFCD05" d="M2.625 20.93c0 1.543 1.227 2.793 2.738 2.793h19.18c1.512 0 2.738-1.25 2.738-2.793v-2.793H2.625Zm0 0"/></g><g clip-path="url(#b)"><path fill="#ED1F24" d="M2.625 11.855h24.656v6.282H2.625Zm0 0"/></g><g clip-path="url(#c)"><path fill="#141414" d="M24.543 5.578H5.363c-1.511 0-2.738 1.25-2.738 2.79v3.487h24.656V8.367c0-1.539-1.226-2.789-2.738-2.789m0 0"/></g></svg>