<svg xmlns="http://www.w3.org/2000/svg" width="40" height="40" version="1.0" viewBox="0 0 30 30"><defs><clipPath id="a"><path d="M3 23h22v.555H3Zm0 0"/></clipPath><clipPath id="b"><path d="M2.328 8h23.953v14H2.328Zm0 0"/></clipPath><clipPath id="c"><path d="M2.328 6.133h23.953v17.422H2.328Zm0 0"/></clipPath><clipPath id="d"><path d="M2.328 6.133H12V16H2.328Zm0 0"/></clipPath></defs><g clip-path="url(#a)"><path fill="#0D5EB0" d="M4.996 23.555H23.61c.47 0 .907-.125 1.29-.336H3.71c.383.21.82.336 1.285.336m0 0"/></g><g clip-path="url(#b)"><path fill="#EEE" d="M7.988 15.848H2.336v1.675H26.27v-1.675Zm-5.652 5.027c0 .113.012.223.023.332h23.887q.024-.164.024-.332v-1.34H2.336Zm9.309-8.71H26.27v1.675H11.645Zm0-3.685v1.672H26.27v-1.34q0-.168-.024-.332Zm0 0"/></g><g clip-path="url(#c)"><path fill="#0D5EB0" d="M11.645 10.152H26.27v2.012H11.645Zm-9.31 7.371H26.27v2.012H2.336Zm1.376 5.696h21.187a2.68 2.68 0 0 0 1.348-2.012H2.36c.11.867.625 1.605 1.352 2.012M2.336 12.164h3.656v3.684H2.336Zm9.309 1.676v-1.676H7.988v3.684H26.27V13.84Zm13.253-7.371a2.6 2.6 0 0 0-1.289-.336H4.996c-.465 0-.902.12-1.285.336A2.69 2.69 0 0 0 2.359 8.48c-.011.11-.023.22-.023.332v1.34h3.656V6.47h1.996v3.683h3.657V8.48h14.601a2.68 2.68 0 0 0-1.348-2.011m0 0"/></g><g clip-path="url(#d)"><path fill="#EEE" d="M7.988 10.152v-4.02H5.992v4.02H2.336v2.012h3.656v3.684h1.996v-3.684h3.657v-2.012Zm0 0"/></g></svg>