<svg xmlns="http://www.w3.org/2000/svg" width="40" height="40" version="1.0" viewBox="0 0 30 30"><defs><clipPath id="a"><path d="M2.156 17H27.56v6.39H2.156Zm0 0"/></clipPath><clipPath id="b"><path d="M2.156 10H27.56v8H2.156Zm0 0"/></clipPath><clipPath id="c"><path d="M2.156 5.246H27.56V11H2.156Zm0 0"/></clipPath><clipPath id="d"><path d="M2.156 17H27.56v2H2.156Zm0 0"/></clipPath><clipPath id="e"><path d="M2.156 10H27.56v1H2.156Zm0 0"/></clipPath></defs><g clip-path="url(#a)"><path fill="#DA0001" d="M2.164 20.598c0 1.543 1.262 2.793 2.82 2.793H24.73c1.56 0 2.82-1.25 2.82-2.793v-2.79H2.165Zm0 0"/></g><g clip-path="url(#b)"><path fill="#EEE" d="M2.164 10.828h25.387v6.98H2.164Zm0 0"/></g><g clip-path="url(#c)"><path fill="#239F40" d="M27.55 10.828V8.035c0-1.539-1.26-2.789-2.82-2.789H4.984c-1.558 0-2.82 1.25-2.82 2.79v2.792Zm0 0"/></g><g clip-path="url(#d)"><path fill="#E96667" d="M2.164 17.809h25.387v.695H2.164Zm0 0"/></g><path fill="#BE1931" d="M15.89 12.203c.676.34 2.145 2.059.563 4 .98-.215 2.23-3.078-.562-4m-2.07 0c-2.793.922-1.543 3.785-.562 4-1.582-1.941-.113-3.66.562-4m1.024-.101c.027.14.777.304.687-.399-.117.285-.46.277-.683.145-.305.168-.586.125-.696-.16-.105.527.414.683.692.414m0 0"/><path fill="#BE1931" d="M16.648 14.25c-.011-.871-.476-1.64-.937-1.953.305.367 1.234 2.398-.555 3.734l.035-3.554-.336-.293-.335.277.058 3.59-.015-.008c-1.805-1.336-.868-3.379-.563-3.746-.46.312-.93 1.082-.937 1.953-.012.75.335 1.566 1.292 2.238-.394.102-.82.145-1.183.14.328.177.945.134 1.414.09v.048l.281.304.281-.316v-.035c.477.043 1.106.09 1.438-.09a4.6 4.6 0 0 1-1.219-.149c.945-.671 1.29-1.484 1.281-2.23m0 0"/><g clip-path="url(#e)"><path fill="#7BC58C" d="M2.164 10.129h25.387v.7H2.164Zm0 0"/></g></svg>