<svg xmlns="http://www.w3.org/2000/svg" width="40" height="40" version="1.0" viewBox="0 0 30 30"><defs><clipPath id="a"><path d="M19 6.133h8.715v18.144H19Zm0 0"/></clipPath><clipPath id="b"><path d="M2.309 6.133H11v18.144H2.309Zm0 0"/></clipPath><clipPath id="c"><path d="M10 6.133h10v18.144H10Zm0 0"/></clipPath></defs><g clip-path="url(#a)"><path fill="#CE2B37" d="M27.703 21.488c0 1.54-1.262 2.79-2.82 2.79h-5.64V6.132h5.64c1.558 0 2.82 1.25 2.82 2.793Zm0 0"/></g><g clip-path="url(#b)"><path fill="#009246" d="M5.14 6.133c-1.558 0-2.82 1.25-2.82 2.793v12.562c0 1.54 1.262 2.79 2.82 2.79h5.641V6.132Zm0 0"/></g><g clip-path="url(#c)"><path fill="#EEE" d="M10.781 6.133h8.461v18.144h-8.46Zm0 0"/></g></svg>