<svg xmlns="http://www.w3.org/2000/svg" width="40" height="40" version="1.0" viewBox="0 0 30 30"><defs><clipPath id="a"><path d="M2.227 6.133h25.402v18.144H2.227Zm0 0"/></clipPath></defs><g clip-path="url(#a)"><path fill="#EEE" d="M27.621 21.488c0 1.54-1.262 2.79-2.82 2.79H5.055c-1.559 0-2.82-1.25-2.82-2.79V8.926c0-1.543 1.261-2.793 2.82-2.793H24.8c1.558 0 2.82 1.25 2.82 2.793Zm0 0"/></g><path fill="#ED1B2F" d="M19.863 15.207q0 .48-.093.953a4.7 4.7 0 0 1-.282.914 4.808 4.808 0 0 1-1.07 1.586q-.344.34-.746.61c-.27.175-.555.328-.856.449q-.45.186-.925.277a4.99 4.99 0 0 1-3.707-.726q-.406-.27-.746-.61a4.8 4.8 0 0 1-1.07-1.586 4.7 4.7 0 0 1-.282-.914 4.9 4.9 0 0 1 0-1.906q.093-.473.281-.918t.457-.844q.269-.397.614-.742a4.974 4.974 0 0 1 6.98 0q.345.345.613.742a4.9 4.9 0 0 1 .739 1.762c.062.312.093.633.093.953m0 0"/></svg>