<svg xmlns="http://www.w3.org/2000/svg" width="40" height="40" version="1.0" viewBox="0 0 30 30"><defs><clipPath id="a"><path d="M3.387 6.695h23.226v16.696H3.387Zm0 0"/></clipPath></defs><g clip-path="url(#a)"><path fill="#00AFCA" d="M26.605 20.82a2.577 2.577 0 0 1-2.578 2.57H5.973a2.577 2.577 0 0 1-2.578-2.57V9.266a2.577 2.577 0 0 1 2.578-2.57h18.054a2.577 2.577 0 0 1 2.578 2.57Zm0 0"/></g><path fill="#FFCC4D" d="M17.516 14.09a1.82 1.82 0 0 1-.543 1.297 1.8 1.8 0 0 1-.598.402 1.9 1.9 0 0 1-1.414 0 1.847 1.847 0 0 1-1.14-1.7 1.83 1.83 0 0 1 .538-1.3 1.83 1.83 0 0 1 1.309-.539q.368.001.707.137.34.139.598.402.26.259.402.594.14.338.14.707M15.668 12.11c.11 0 .148-.07.148-.153 0-.11-.148-.96-.148-.96s-.152.85-.152.96c0 .082.043.152.152.152m0 3.968c-.11 0-.152.067-.152.149 0 .109.152.949.152.949s.148-.84.148-.95c.004-.081-.039-.148-.148-.148M15.152 16c-.105-.027-.164.027-.183.105-.028.106-.106.97-.106.97s.367-.786.399-.891c.02-.079-.004-.157-.11-.184m1.032-3.832c.105.027.164-.031.187-.11.027-.105.098-.953.098-.953s-.364.77-.39.88c-.024.078 0 .152.105.183m-1.512 3.633c-.094-.055-.164-.016-.203.054-.055.098-.356.907-.356.907s.559-.66.617-.754c.04-.07.04-.153-.058-.207m1.992-3.438c.098.055.168.016.207-.054.055-.094.348-.899.348-.899s-.555.652-.61.75c-.039.07-.039.149.055.203m-2.402 3.121c-.078-.074-.157-.054-.215.004-.074.078-.574.785-.574.785s.71-.496.789-.574c.058-.058.078-.136 0-.215m2.816-2.804c.078.078.156.058.215 0 .078-.078.566-.778.566-.778s-.703.489-.777.567c-.059.058-.082.133-.004.21m-3.133 2.394c-.054-.094-.133-.094-.203-.05-.097.054-.762.609-.762.609s.817-.297.91-.352c.07-.039.114-.11.055-.207m3.45-1.98c.058.094.14.094.21.054.094-.054.75-.605.75-.605s-.808.289-.902.344c-.07.043-.11.11-.058.207m-3.645 1.504c-.031-.106-.11-.125-.187-.106-.106.028-.891.395-.891.395s.863-.075.969-.102c.078-.023.136-.082.109-.187m3.844-1.028c.031.106.11.13.187.11.106-.032.883-.395.883-.395s-.855.074-.96.102c-.079.023-.138.078-.11.183m-3.914.516c0-.11-.067-.149-.149-.149-.113 0-.965.149-.965.149s.852.152.965.152c.082 0 .149-.043.149-.152m3.984 0c0 .11.07.152.152.152.11 0 .954-.152.954-.152s-.844-.149-.954-.149c-.082 0-.152.04-.152.149m-3.914-.512c.027-.105-.031-.16-.11-.183-.105-.028-.968-.102-.968-.102s.785.363.89.395c.079.02.16-.004.188-.11m3.848 1.028c-.032.105.027.164.105.187.106.027.961.098.961.098s-.777-.364-.883-.39c-.078-.02-.156 0-.183.105m-3.649-1.504c.051-.094.012-.164-.058-.203-.094-.055-.91-.352-.91-.352s.664.555.757.61c.075.042.153.038.211-.055m3.45 1.984c-.055.094-.016.164.054.207.094.055.902.344.902.344s-.656-.551-.75-.606c-.074-.039-.152-.039-.207.055m-3.137-2.395c.078-.078.058-.152 0-.21-.078-.079-.79-.575-.79-.575s.5.707.575.786c.058.058.137.078.215 0m2.82 2.805c-.078.078-.059.156 0 .215.074.078.781.566.781.566s-.492-.699-.57-.777c-.059-.059-.137-.082-.211-.004m-2.406-3.117c.094-.055.094-.137.054-.207-.054-.094-.613-.758-.613-.758s.297.813.352.91c.039.07.11.11.207.055m1.992 3.434c-.098.054-.098.136-.059.207.059.093.61.746.61.746s-.293-.801-.348-.899c-.039-.066-.11-.11-.203-.054m-1.516-3.633c.11-.028.13-.106.11-.184-.032-.105-.395-.89-.395-.89s.07.863.102.968c.02.078.078.137.183.106m1.036 3.832c-.11.031-.133.105-.11.187.027.106.395.875.395.875s-.075-.847-.102-.953c-.023-.078-.078-.137-.183-.11m0 0"/><path fill="#FFCC4D" d="m17.48 18.668-.023.008-.027.004-.02.004-.039-.008-.016-.004-.015-.008-.016-.012-.027-.02-.027-.023-.016-.007-.02-.008-.011-.004h-.02l-.074.152-.012.02-.015.02-.016.007-.012.012-.02.008h-.015l-.039-.02-.008-.008-.008-.011-.015-.032-.008-.054-.023.02-.02.023-.04.062-.023.031-.027.024-.012.015-.02.008-.015.008-.023.008h-.008l-.02.004-.015-.004-.016-.008-.043-.047-.043-.05-.031.05-.039.04-.016.019-.015.015-.02.016-.031.016-.02.003h-.015l-.031-.007-.008-.012-.016-.02c-.008-.023-.02-.05-.027-.074l-.004-.02-.008-.011-.008-.008h-.008l-.093.152-.016.016-.023.012-.055.012h-.035l-.024-.008-.008-.004-.011-.008v-.023l.012-.153-.012.004-.028.012q-.036.041-.074.082l-.031.039-.04.031-.034.028-.024.011-.043.008-.015-.004-.008-.004-.008-.008-.004-.011v-.008l.004-.047.012-.07-.008-.043-.016-.024-.02.032-.034.046a1 1 0 0 1-.09.09q-.023.018-.05.035l-.036.016-.008-.004h-.012l-.011-.012-.008-.011-.004-.008v-.168c-.063.047-.129.086-.195.129l-.024.008-.027.015c-.027.008-.05.012-.078.02h-.051l-.02-.008.012-.031.02-.047.015-.024.016-.02.012-.019.035-.035.039-.031.047-.027.047-.02.05-.02.055-.011.121-.024.059-.007a8 8 0 0 1 .535-.008l.195-.012.059-.008.113-.02.055-.015.05-.02.047-.023q.037-.03.075-.055l.035-.039-.04-.07.032-.004.027-.008.055-.03.02-.02.015-.024.004-.012v-.027l-.008-.012.059-.011.066-.008.067-.004h.07q.145.007.297.02.223.023.445.042l.133.008v.051l-.004.02-.008.02-.004.023-.007.015-.012.016q-.02.02-.04.043l-.03.02-.036.015-.035.008-.039.004-.074-.004-.04-.012-.034-.02-.035-.015-.055-.055v.063q-.01.058-.02.117l-.011.035-.008.016-.012.007-.008.012zm-2.847-.332.078.035q.026-.023.05-.039l.032-.016.027-.02.11-.042.09-.043.046-.016.079-.043.03-.02c.083-.054.16-.105.243-.155l.07-.047.051-.043q.082-.073.156-.145l.024-.015.023-.012q.045-.024.09-.043l.059-.024c.12-.03.242-.058.363-.074.129-.015.254-.035.379-.047l.164-.027q.063-.019.125-.031l.043-.055.066-.074.047-.047.05-.043.063-.043.07-.047.106-.062.23-.118q.205-.093.403-.199l.063-.043.015-.05.027-.055.032-.051.082-.11.11-.12c.042-.043.089-.082.132-.125l.07-.055.035-.024.036-.027c.027-.012.05-.027.078-.039l.039-.02.039-.015.082-.02.043-.004.039-.003.039.003.039.008v.043l-.012.04-.031.09-.027.046-.032.047-.039.047-.047.05.04-.003.03-.008.024-.008.024-.012.047-.011.066-.008.004.023v.028l-.004.023-.004.02-.012.023-.015.02-.012.015-.02.02a3 3 0 0 1-.148.136l.043.004q.047.017.094.028l.035.007-.043.032q-.048.033-.098.066l-.113.063-.059.035-.058.039-.051.043.023.004.032.011.015.004.016.008.012.004.008-.004-.07.04q-.066.03-.13.062l-.054.035-.012.008-.004.011-.008.012v.012l.008.012.016.011.011.012-.004.012-.007.011-.016.012-.012.012-.035.015-.039.02-.082.027-.05.024.07.07-.024.023-.023.02-.024.012-.023.008-.051.007h-.07l.008.032.011.03.016.075c-.047.031-.09.067-.137.098l-.082.05-.09.055-.054.024-.051.023c-.063.024-.121.047-.184.067l-.137.027-.074.012q.123.004.246.003l.2-.023.09-.016.078-.023q.075-.024.152-.055l.098-.047.093-.05.094-.059.098-.055-.059-.027-.058-.02-.024-.011-.062-.028-.032-.02.028-.019.035-.011.035-.016q.064-.017.129-.027l.164-.024.07-.004.055-.015.016-.008.011-.012-.004-.004-.007-.004-.012-.004-.012-.007-.039-.008-.05-.008-.052-.004-.046-.008-.043-.008-.028-.011.344-.078.063-.016.078-.035.035-.02.012-.015h-.004l-.004-.008-.035-.008-.043-.004h-.055q-.054-.004-.11-.008l-.046-.007-.028-.008.051-.02q.11-.034.227-.062a2 2 0 0 1 .129-.043l.07-.028.031-.02.027-.015.012-.012.012-.015.008-.008.004-.012-.004-.011-.008-.008h-.238l-.012-.008-.016-.008q.194-.127.39-.254l.102-.07c.028-.02.051-.043.079-.07l.062-.07.02-.036.02-.039.007-.043v-.047h-.023l-.024.004-.055.02q-.075.047-.152.09l-.027.02-.063.023-.031.007-.027.004h-.032l-.027-.011.086-.067c.066-.055.137-.117.203-.176q.113-.106.219-.218l.101-.114.094-.117q.038-.051.074-.11l.008-.011.004-.012-.004-.015-.004-.008-.004-.012-.011-.008-.008-.011-.012-.004-.031-.008h-.027l-.012.004h-.02l-.008.012-.015.011q-.11.107-.215.219l-.086.082q-.083.073-.172.145a1 1 0 0 1-.082.05l-.078.04.027-.02q.037-.035.075-.074.134-.158.261-.32l.164-.231.086-.149.035-.062.028-.059.02-.05.003-.016v-.031l-.015-.032-.008-.007h-.012l-.02-.012-.027-.008h-.05l-.024.008-.016.008-.007.008-.032.027a1 1 0 0 0-.09.113c-.07.113-.144.219-.222.328l-.09.106-.094.086.063-.117.097-.208.067-.152.027-.078.047-.156c.016-.051.023-.106.035-.156l.012-.145-.008-.035v-.031l-.004-.036-.012-.039-.007-.011-.016-.016-.023-.012-.028-.008h-.023l-.024.004-.015.008-.004.008c-.067.2-.113.402-.168.605l-.063.168-.054.102-.032.047.02-.102q.017-.088.027-.175l.016-.145.004-.062q-.004-.047-.008-.09l-.008-.036-.008-.027-.015-.023-.008-.008-.02-.008-.011-.004H19l-.012.004-.027.008-.027.016a8 8 0 0 1-.079.324q-.065.205-.148.398c-.039.078-.078.16-.121.235l-.078.136-.086.125a5 5 0 0 1-.176.235c-.058.066-.121.132-.18.195-.066.062-.128.125-.195.187l-.207.165a4 4 0 0 1-.266.175l-.156.09-.246.113-.258.094-.21.063-.22.05-.109.016-.222.027-.114.008-.023.008-.02.012-.027.015q-.042.037-.078.075l-.059.058-.207.227-.078.078-.09.07-.07.047-.078.035c-.121.051-.242.094-.363.14l-.032.02-.027.012-.024.016-.039.039-.007.015-.008.02-.004.023v.02"/><path fill="#FFCC4D" d="m15.93 18.492.058.008.028.012.007.004v.004h-.007l-.008.003-.055.012h-.047l-.148-.012-.375-.007c-.098 0-.2.004-.297.007a6 6 0 0 0-.262.02l-.07.012-.059.011a.2.2 0 0 1-.043.016l-.015.008-.016.012.008-.036.016-.039-.051.016-.043.02-.016.011-.015.016-.012.015v.02l-.012-.023-.008-.024q-.004-.023-.008-.047l.012-.054.012-.02.004-.012.015-.02.028-.027.039-.023.043-.023a1 1 0 0 0 .074.03q.035 0 .078-.007c.04.035.14.027.152-.035a.1.1 0 0 0 0-.07l.043-.004.051-.008.11-.028.058-.011.051-.016.05-.004.044-.004-.02.012-.09.07-.035.028.043.011.04.004-.083.098-.023.027.027.012.031.008.032.004h.062l.063-.012.027-.016.027.016.028.012.058.011c.043.004.086.012.13.016h.269m-.325-1.074-.03.062-.036.082-.055.102-.015.02-.043-.036-.047-.035-.047-.023-.055-.02-.113-.031-.055-.008q-.094-.012-.187-.02-.121 0-.242-.011l-.114-.012-.066-.012-.059-.011-.062-.024-.055-.027-.039-.027-.082-.059q-.174-.167-.355-.332l-.07-.047-.032-.015-.035-.012-.059-.012-.105-.035-.102-.047a2 2 0 0 1-.168-.117l-.039-.031-.07-.07-.066-.075c-.11-.137-.215-.273-.325-.414q-.08-.084-.16-.16l-.047-.043-.047-.04-.101-.073-.008.004-.012.011-.011.016q-.011.023-.016.047l-.004.015-.027-.011-.02-.012-.027-.012-.02-.008h-.047l-.027.008-.023.012q.03.036.054.074l.036.05.054.11.024.051.007.027.008.024v.043h-.191l.031.043q.03.045.067.086l.117.117.039.031.035.024q-.047.006-.094.007l-.09.012.032.027q.04.03.082.063l.043.031.046.028.047.023.043.016.04.011.03.004.012.004.008.008v.02l-.008.027-.004.02-.003.015v.008l.003.02.004.015.008.004.008.008.016.008.015.003.04.016.015.004.016.012v.015l-.032.02-.011.015-.016.016v.016l-.004.015.008.035.125.043.027.008.028.012.039.02-.118.093.032.028.043.023.046.023q.052.018.11.036l.05.011.048.008h.043l-.04.031-.05.032-.055.027-.04.027.036.028q.164.081.332.152.293.117.598.211.07.012.133.035l.058.008-.113-.008c-.07-.012-.14-.02-.215-.035l-.098-.02-.195-.054-.09-.032c-.246-.097-.484-.207-.73-.296l.015-.012.051-.02.031-.004q.064-.02.13-.043c-.087-.015-.169-.027-.255-.046q-.065-.02-.129-.04l-.027-.011-.02-.008-.019-.012-.008-.011v-.004l.004-.004.008-.004.012-.008.027-.008.125-.039.07-.023a7 7 0 0 0-.308-.051l-.051-.012-.04-.015-.01-.008-.016-.012-.012-.004-.004-.012.008-.007.031-.008c.035-.004.066-.012.102-.016l.054-.008c.035-.007.067-.02.098-.027l.016-.012.011-.011-.054-.02-.07-.016-.165-.02-.043-.01-.039-.009-.078-.027-.035-.02-.031-.019-.028-.023-.02-.032.009-.004.011-.003h.02l.027.003.133.004.082.008h.098l.027-.004.023-.004.012-.008q-.1-.043-.199-.085-.065-.035-.129-.063l-.137-.07-.062-.04q-.06-.043-.117-.085l-.051-.043-.02-.024-.023-.023-.012-.02-.031-.047-.008-.023-.004-.047h.024l.027.004.027.012.032.012.054.035.063.035.031.02.031.015.032.012.027.011.031.008.027.004h.036l.027-.012-.086-.062c-.066-.059-.137-.117-.203-.176a5 5 0 0 1-.324-.332l-.047-.062-.043-.055c-.027-.035-.05-.074-.078-.11l-.004-.015v-.024l.004-.011v-.008l.011-.008.012-.012.012-.007.012-.004.015-.004h.028l.02.004.015.004.011.011q.117.113.227.23.124.117.254.227l.082.051.043.02.039.015-.027-.02-.075-.07q-.134-.158-.261-.324-.059-.075-.11-.152l-.101-.152c-.028-.047-.051-.09-.078-.137a1 1 0 0 0-.043-.106l-.008-.02v-.027l.008-.011.011-.02.008-.008.012-.007.047-.016h.047l.015.004.012.004.012.008.039.035.094.117c.07.11.148.219.226.324l.082.106.047.047.05.043c-.054-.11-.109-.215-.163-.325q-.031-.075-.063-.152l-.027-.078a3 3 0 0 0-.05-.16l-.032-.157-.008-.074v-.105l.008-.063.008-.031.007-.012.004-.011.016-.016.027-.012.024-.008h.023l.024.004.015.008.008.016c.063.199.113.398.164.597q.03.088.067.168l.023.051.027.05.032.052-.02-.106c-.008-.058-.02-.117-.027-.176a4 4 0 0 1-.02-.203l.008-.093.008-.036.012-.027.011-.02.008-.007.012-.008.008-.004h.035l.054.023.051.223c.016.07.04.137.059.203q.053.152.117.297l.05.106.071.132.078.133.086.13.09.124.086.106q.09.099.18.199.098.095.195.183l.105.086q.139.106.29.207.116.07.238.133l.242.117q.188.075.375.133.188.052.375.086.257.04.52.05M5.625 21.797s-.152.129-.203.066c-.086-.105.254-.617.254-.797 0-.296-.2-.378-.446-.421-.164-.028-.43.011-.43.011.048.067.083.09.169.094a.35.35 0 0 0-.192.32c0 .254.106.36.106.649 0 .16-.133.363-.133.363.234-.023.348-.238.285-.41a.12.12 0 0 1 .098.031c.015-.047-.012-.101-.047-.148.031-.016.05-.008.098 0-.004-.047-.036-.098-.106-.149.207.055.336-.09.336-.242 0-.113-.082-.195-.16-.195a.15.15 0 0 0-.082.023c-.016-.031-.008-.07.004-.105-.055.015-.094.05-.067.12a.14.14 0 0 0-.101.052.12.12 0 0 0 .101.043c-.03.066.004.105.059.136 0 0-.035-.136.05-.136.04 0 .075.015.075.07 0 .047-.043.117-.145.113-.097-.004-.18-.07-.18-.226 0-.149.118-.22.274-.223.14-.004.246.07.246.215 0 .191-.277.629-.277.8 0 .13.113.2.226.2.149 0 .274-.145.274-.145Zm-.031-3.469c0-.316.289-.484.515-.484.305 0 .47.183.47.422a.7.7 0 0 1-.09.347l-.7 1.45a.45.45 0 0 0-.035.195c0 .129.129.234.262.238.12.004.254-.113.254-.242 0-.16-.086-.23-.172-.23-.102 0-.145.038-.145.113 0 .054.024.074.059.074.09 0 .066-.121.066-.121.043.012.082.055.063.113a.16.16 0 0 1 .086.05.16.16 0 0 1-.086.048c.02.07-.008.105-.07.12a.13.13 0 0 0 .007-.073c-.094.027-.242-.016-.242-.184 0-.164.113-.3.328-.266-.05-.023-.074-.074-.082-.128.04.015.082.015.082.015-.023-.043-.059-.082-.059-.168.043.02.079.051.13.031-.079-.156.019-.37.269-.425a.5.5 0 0 0-.137.34c0 .37.106.433.106.69a.4.4 0 0 1-.168.306v-.004c.07.015.12.054.144.101-.164.047-.41.047-.539-.004a.4.4 0 0 1-.285-.187.58.58 0 0 1 0-.461c.102-.207.566-1.195.715-1.504a.5.5 0 0 0 .047-.215c0-.187-.172-.254-.274-.254-.117 0-.238.09-.238.203 0 .07.04.114.094.114.133 0 .125-.114.097-.184.086.035.133.102.122.172a.22.22 0 0 1 .132.078.17.17 0 0 1-.133.07c.028.11-.046.157-.12.184.023-.082.038-.176-.098-.176-.102 0-.18-.015-.223-.082-.004.09-.012.43-.012.43-.007.129.172.125.286.086-.047.148-.133.226-.336.207.05.02.101.066.101.156 0 .117-.098.25-.16.293Zm0 0"/><path fill="#FFCC4D" d="M5.656 18.328c0-.316-.289-.484-.515-.484-.305 0-.47.183-.47.422 0 .136.024.218.087.347l.703 1.45c.023.05.031.109.031.195 0 .129-.125.234-.258.238-.12.004-.254-.113-.254-.242 0-.16.082-.23.168-.23.106 0 .149.038.149.113 0 .054-.027.074-.063.074-.09 0-.062-.121-.062-.121-.047.012-.082.055-.063.113a.16.16 0 0 0-.086.05c.024.024.051.044.086.048-.02.07.008.105.067.12a.14.14 0 0 1-.008-.077c.098.027.246-.016.246-.18s-.117-.3-.328-.27c.05-.023.074-.07.078-.128a.3.3 0 0 1-.078.02c.023-.044.059-.083.055-.169-.04.016-.075.051-.125.028.078-.157-.02-.368-.27-.422a.5.5 0 0 1 .137.336c0 .375-.106.437-.106.695 0 .105.059.223.168.305v-.008a.23.23 0 0 0-.148.105c.168.047.41.047.543-.004a.4.4 0 0 0 .285-.191.57.57 0 0 0 0-.457c-.102-.207-.57-1.195-.715-1.504a.5.5 0 0 1-.05-.215c0-.187.175-.254.277-.254.117 0 .238.09.238.203 0 .07-.04.114-.094.114-.136 0-.125-.114-.101-.188-.082.04-.133.106-.117.176a.23.23 0 0 0-.133.074c.03.043.07.074.133.074-.028.11.046.157.117.18-.02-.078-.035-.172.101-.172.098 0 .18-.015.223-.082l.012.43c.007.125-.172.12-.286.086.043.144.133.226.332.207a.16.16 0 0 0-.101.152.4.4 0 0 0 .164.293Zm-.031 3.469s.152.129.203.066c.082-.105-.254-.617-.254-.797 0-.296.2-.378.442-.421.168-.028.433.011.433.011-.05.067-.082.09-.168.094.094.05.192.156.192.32 0 .254-.106.36-.106.649 0 .16.133.363.133.363-.234-.023-.348-.238-.285-.41a.12.12 0 0 0-.098.031c-.015-.047.012-.101.047-.148-.031-.016-.05-.008-.098 0 .004-.047.036-.098.106-.149-.207.055-.336-.09-.336-.242 0-.113.078-.195.16-.195.024 0 .063.008.082.023.016-.031.008-.07-.008-.105.059.015.094.05.07.12q.067.006.102.052a.12.12 0 0 1-.101.043c.03.066-.004.105-.059.136 0 0 .035-.136-.05-.136-.04 0-.075.015-.075.07 0 .047.043.117.145.113.097-.004.18-.07.18-.226 0-.149-.118-.22-.274-.223-.14-.004-.246.07-.246.215 0 .191.277.629.277.8 0 .13-.117.2-.23.2-.145 0-.27-.145-.27-.145Zm-.031-9.082c0-.32.289-.485.515-.485.305 0 .47.184.47.422a.7.7 0 0 1-.09.348l-.7 1.45a.45.45 0 0 0-.035.195c0 .128.129.234.262.238.12.004.254-.113.254-.242 0-.16-.086-.23-.172-.23-.102 0-.145.042-.145.112 0 .051.024.075.059.075.09 0 .066-.121.066-.121.043.011.082.054.063.113a.16.16 0 0 1 .086.05.16.16 0 0 1-.086.047c.02.07-.008.106-.07.118a.12.12 0 0 0 .007-.075c-.094.028-.242-.015-.242-.18 0-.163.113-.3.328-.269-.05-.023-.074-.07-.082-.129.04.016.082.02.082.02-.023-.043-.059-.082-.059-.168.043.016.079.05.13.027-.079-.156.019-.37.269-.422a.5.5 0 0 0-.137.336c0 .375.106.434.106.696a.4.4 0 0 1-.168.304v-.008a.22.22 0 0 1 .144.106c-.168.047-.41.047-.539-.004a.41.41 0 0 1-.285-.191.57.57 0 0 1 0-.457c.098-.207.566-1.196.71-1.504a.5.5 0 0 0 .052-.215c0-.188-.176-.254-.274-.254-.12 0-.242.09-.242.2 0 .073.04.116.098.116.133 0 .125-.113.097-.187.082.039.133.105.118.176.05.007.093.027.136.074-.035.043-.074.074-.136.074.027.11-.043.156-.118.184.024-.082.04-.172-.097-.172-.102 0-.18-.02-.227-.082-.004.086-.012.426-.012.426-.003.128.172.125.286.085-.043.149-.13.227-.332.208.05.02.101.066.101.156a.42.42 0 0 1-.16.293Zm0 0"/><path fill="#FFCC4D" d="M5.656 12.715c0-.32-.289-.485-.515-.485-.305 0-.47.184-.47.422 0 .137.024.22.087.348l.703 1.45c.023.05.031.109.031.195 0 .128-.125.234-.258.238-.12.004-.254-.113-.254-.242 0-.16.082-.23.168-.23.106 0 .149.042.149.112 0 .051-.027.075-.063.075-.09 0-.062-.121-.062-.121-.047.011-.082.054-.063.113a.16.16 0 0 0-.086.05c.024.024.051.044.086.047-.02.07.008.106.067.118a.12.12 0 0 1-.008-.075c.098.028.242-.015.242-.18 0-.163-.113-.3-.328-.269.05-.023.078-.07.082-.129-.039.016-.082.02-.082.02.027-.043.063-.082.059-.168-.04.016-.075.05-.125.027.078-.156-.02-.37-.27-.422q.136.166.137.336c0 .375-.106.434-.106.696 0 .105.059.222.168.304v-.008q-.11.03-.144.106c.164.047.406.047.539-.004a.41.41 0 0 0 .285-.191.57.57 0 0 0 0-.457c-.102-.207-.566-1.196-.715-1.504a.5.5 0 0 1-.047-.211c0-.192.172-.258.274-.258.117 0 .238.09.238.203 0 .07-.04.113-.094.113-.133 0-.125-.113-.101-.183-.082.035-.13.101-.117.172a.2.2 0 0 0-.133.078c.03.039.07.07.133.07-.028.11.046.156.117.184-.02-.082-.035-.172.101-.172.102 0 .18-.02.223-.082l.012.426c.007.125-.172.125-.286.085.043.149.133.227.332.208a.16.16 0 0 0-.101.156c0 .117.098.254.164.293Zm0 0"/><path fill="#FFCC4D" d="M5.656 11.754c0 .32-.289.484-.515.484-.305 0-.47-.18-.47-.418a.7.7 0 0 1 .087-.351l.703-1.45a.45.45 0 0 0 .031-.19c0-.13-.125-.24-.258-.24-.12-.003-.254.11-.254.243 0 .16.082.23.168.23.106 0 .149-.042.149-.117 0-.05-.027-.074-.063-.074-.09 0-.062.121-.062.121a.08.08 0 0 1-.063-.11.16.16 0 0 1-.086-.05.2.2 0 0 1 .086-.05c-.02-.067.008-.102.067-.118a.13.13 0 0 0-.008.074c.098-.023.246.02.246.184s-.117.3-.328.265a.15.15 0 0 1 .078.13c-.039-.012-.078-.016-.078-.016.023.043.059.082.055.168-.04-.016-.075-.051-.125-.031.078.16-.02.374-.27.425a.5.5 0 0 0 .137-.34c0-.37-.106-.433-.106-.691 0-.105.059-.223.168-.305v.004q-.11-.03-.144-.101c.164-.047.406-.047.539.004a.4.4 0 0 1 .285.191.57.57 0 0 1 0 .457c-.102.207-.566 1.195-.715 1.504a.5.5 0 0 0-.047.21c0 .192.172.259.274.259.117 0 .238-.09.238-.203 0-.07-.04-.114-.094-.114-.133 0-.125.114-.101.184-.082-.035-.13-.106-.117-.176q-.07-.005-.133-.074c.03-.043.07-.074.133-.074-.028-.11.046-.157.117-.18-.02.078-.035.172.101.172.102 0 .18.015.223.082l.012-.426c.007-.129-.172-.125-.286-.086.043-.148.133-.23.336-.21a.16.16 0 0 1-.105-.153.4.4 0 0 1 .164-.293Zm0 5.613c0 .32-.289.488-.515.488-.305 0-.47-.183-.47-.421 0-.137.024-.223.087-.348l.703-1.453a.4.4 0 0 0 .031-.192c0-.129-.125-.234-.258-.238-.12-.004-.254.113-.254.242 0 .16.082.23.168.23.106 0 .149-.042.149-.116 0-.051-.027-.07-.063-.07-.09 0-.062.12-.062.12-.047-.011-.082-.054-.063-.113a.16.16 0 0 1-.086-.05.14.14 0 0 1 .086-.048c-.02-.07.008-.105.067-.12a.13.13 0 0 0-.008.074c.098-.024.242.02.242.183 0 .164-.113.3-.328.266.05.027.078.074.082.133-.039-.016-.082-.02-.082-.02.027.043.063.082.059.168-.04-.016-.075-.05-.125-.031.078.156-.02.375-.27.426a.52.52 0 0 0 .137-.336c0-.371-.106-.438-.106-.696 0-.105.059-.222.168-.304v.004q-.11-.025-.144-.102c.164-.047.406-.047.539.004a.41.41 0 0 1 .285.191.57.57 0 0 1 0 .457c-.102.207-.566 1.196-.715 1.504a.5.5 0 0 0-.047.211c0 .192.172.258.274.258.117 0 .238-.09.238-.203 0-.07-.04-.113-.094-.113-.133 0-.125.113-.101.183-.082-.035-.13-.101-.117-.172a.2.2 0 0 1-.133-.078c.03-.039.07-.07.133-.074-.028-.106.046-.152.117-.18-.02.082-.035.176.101.176.102 0 .18.016.223.082l.012-.43c.007-.125-.172-.125-.286-.086.043-.148.133-.226.336-.207a.16.16 0 0 1-.105-.156c0-.117.098-.25.164-.293Zm0 0"/><path fill="#FFCC4D" d="M5.594 17.367c0 .32.289.488.515.488.305 0 .47-.183.47-.421a.7.7 0 0 0-.09-.348l-.7-1.453a.4.4 0 0 1-.035-.192c0-.129.129-.234.262-.238.12-.004.254.113.254.242 0 .16-.086.23-.172.23-.102 0-.145-.042-.145-.116 0-.051.024-.07.059-.07.09 0 .066.12.066.12.043-.011.082-.054.063-.113a.16.16 0 0 0 .086-.05.16.16 0 0 0-.086-.048c.02-.07-.008-.105-.07-.12a.13.13 0 0 1 .007.074c-.094-.024-.242.02-.242.183 0 .164.113.3.328.266-.05.027-.074.074-.082.133a.3.3 0 0 1 .082-.02c-.023.043-.059.082-.059.168.043-.016.079-.05.13-.031-.079.156.019.375.269.426a.5.5 0 0 1-.137-.336c0-.371.106-.438.106-.696a.4.4 0 0 0-.168-.304v.004q.107-.03.144-.102c-.164-.047-.41-.047-.539.004a.41.41 0 0 0-.285.191.57.57 0 0 0 0 .457c.102.207.566 1.192.715 1.504a.5.5 0 0 1 .047.211c0 .192-.172.258-.274.258-.117 0-.238-.09-.238-.203 0-.07.04-.113.094-.113.133 0 .125.113.097.183.086-.035.133-.105.122-.176a.2.2 0 0 0 .132-.074.18.18 0 0 0-.133-.074c.028-.11-.046-.152-.12-.18.023.082.038.172-.098.172-.102 0-.18.02-.223.082l-.012-.426c-.007-.129.172-.125.286-.086-.047-.148-.133-.226-.336-.207.05-.02.101-.066.101-.156a.4.4 0 0 0-.16-.293Zm.031-9.078s.152-.129.203-.066c.082.105-.254.617-.254.797 0 .296.2.378.442.421.168.028.433-.011.433-.011-.05-.07-.082-.09-.168-.094a.35.35 0 0 0 .192-.32c0-.254-.106-.36-.106-.649 0-.16.13-.363.13-.363-.231.023-.349.238-.282.41a.12.12 0 0 1-.098-.031c-.015.047.012.101.047.148-.031.016-.05.008-.098-.004.004.051.036.102.106.153-.207-.055-.336.09-.336.242 0 .113.078.195.16.195a.15.15 0 0 0 .082-.023c.016.031.008.07-.008.105.059-.015.094-.05.07-.12.044-.009.079-.02.102-.052a.14.14 0 0 0-.105-.047c.035-.066-.004-.101-.055-.132 0 0 .035.132-.05.132-.04 0-.075-.011-.075-.066 0-.05.043-.117.14-.113.102.004.18.07.18.226 0 .145-.117.22-.273.223-.137.004-.242-.07-.242-.215 0-.191.277-.629.277-.8 0-.13-.117-.2-.23-.2-.145 0-.27.145-.27.145Zm0 0"/><path fill="#FFCC4D" d="M5.625 8.29s-.152-.13-.203-.067c-.086.105.254.617.254.797 0 .296-.2.378-.446.421-.164.028-.43-.011-.43-.011.048-.07.083-.09.169-.094a.35.35 0 0 1-.192-.32c0-.254.106-.36.106-.649 0-.16-.133-.363-.133-.363.23.023.348.238.281.41.04.004.07-.004.102-.031.015.047-.012.101-.047.148.027.016.05.008.098-.004-.008.051-.036.102-.106.153.207-.055.336.09.336.242 0 .113-.082.195-.16.195a.17.17 0 0 1-.086-.023c-.012.031-.004.07.008.105-.055-.015-.09-.05-.067-.12a.15.15 0 0 1-.101-.048.12.12 0 0 1 .101-.05c-.03-.067.004-.102.059-.133 0 0-.035.132.05.132.04 0 .075-.011.075-.066 0-.05-.043-.117-.145-.113-.097.004-.18.07-.18.226 0 .145.118.22.274.223.14.004.246-.07.246-.215 0-.191-.277-.629-.277-.8 0-.13.113-.2.226-.2.149 0 .274.145.274.145Zm-.031 3.464c0 .32.289.484.515.484.305 0 .47-.18.47-.418a.7.7 0 0 0-.09-.351l-.7-1.45a.4.4 0 0 1-.031-.19c0-.13.125-.235.258-.24.12-.003.254.114.254.243 0 .16-.082.23-.168.23-.106 0-.149-.042-.149-.117 0-.05.024-.07.063-.07.09 0 .062.121.062.121.047-.012.082-.059.063-.113a.16.16 0 0 0 .086-.051.2.2 0 0 0-.09-.05c.023-.067-.004-.102-.067-.118q.016.04.008.074c-.094-.023-.242.02-.242.184s.113.3.328.265c-.05.028-.074.075-.082.13a1 1 0 0 1 .082-.016c-.023.043-.059.082-.059.168.04-.016.079-.051.13-.031-.083.16.015.374.265.425a.53.53 0 0 1-.133-.34c0-.37.102-.433.102-.691a.39.39 0 0 0-.164-.305v.004a.23.23 0 0 0 .144-.101c-.168-.047-.41-.047-.539.004a.4.4 0 0 0-.285.191.57.57 0 0 0 0 .457c.098.207.566 1.195.71 1.504q.05.1.052.21c0 .192-.176.259-.274.259-.12 0-.242-.09-.242-.203 0-.07.04-.114.098-.114.133 0 .125.114.097.184.082-.035.133-.106.118-.176a.2.2 0 0 0 .136-.074c-.035-.043-.074-.074-.136-.074.027-.11-.043-.157-.118-.18.024.078.04.172-.097.172-.102 0-.18.015-.227.082l-.012-.426c-.003-.129.172-.125.286-.086-.043-.148-.13-.226-.332-.207a.16.16 0 0 0 .101-.156.4.4 0 0 0-.16-.293Zm0 0"/></svg>