<svg xmlns="http://www.w3.org/2000/svg" width="40" height="40" version="1.0" viewBox="0 0 30 30"><defs><clipPath id="a"><path d="M2.55 5.531h24.68v18.145H2.55Zm0 0"/></clipPath></defs><g clip-path="url(#a)"><path fill="#EEE" d="M27.219 20.883c0 1.543-1.227 2.793-2.739 2.793H5.3c-1.51 0-2.737-1.25-2.737-2.793V8.324c0-1.543 1.226-2.793 2.738-2.793h19.18c1.511 0 2.738 1.25 2.738 2.793Zm0 0"/></g><path fill="#C60C30" d="M17.246 11.172c-1.855-1.324-4.418-.863-5.723 1.031a2.12 2.12 0 0 0 .504 2.914c.93.664 2.211.434 2.864-.512a2.03 2.03 0 0 1 2.863-.515 2.116 2.116 0 0 1 .504 2.914c1.3-1.89.847-4.504-1.012-5.832m0 0"/><path fill="#003478" d="M17.754 14.09a2.03 2.03 0 0 0-2.863.515 2.033 2.033 0 0 1-2.864.512 2.12 2.12 0 0 1-.504-2.914c-1.3 1.895-.847 4.504 1.012 5.828 1.86 1.328 4.418.867 5.723-1.027a2.12 2.12 0 0 0-.504-2.914m0 0"/><path fill="#292F33" d="m19.23 19.887 1.32-1.602.524.45-1.32 1.6Zm1.758-2.137 1.32-1.602.528.45-1.32 1.601Zm-.71 3.035 1.32-1.601.527.449-1.32 1.601Zm1.761-2.137 1.324-1.605.524.45-1.32 1.605Zm-.71 3.036 1.32-1.602.523.45-1.32 1.6Zm1.76-2.137 1.317-1.606.528.45-1.32 1.605Zm0-9.887.528-.445 1.32 1.601-.523.45Zm-1.76-2.137.526-.449 1.32 1.606-.527.445Zm-1.052.899.528-.45 3.082 3.743-.524.45Zm-1.047.894.524-.449 1.32 1.606-.523.449Zm1.758 2.141.528-.45 1.32 1.602-.523.45ZM6.945 16.594l.524-.446 3.082 3.743-.524.449Zm-1.047.898.524-.445 1.32 1.601-.523.45Zm1.758 2.14.524-.448 1.324 1.601-.527.45Zm-2.808-1.241.523-.45 3.082 3.743-.523.449Zm0-7.575 3.078-3.742.527.45-3.082 3.742Zm1.047.899 3.082-3.742.527.449-3.082 3.742Zm1.05.894 3.082-3.742.524.45-3.082 3.742Zm0 0"/></svg>