<svg xmlns="http://www.w3.org/2000/svg" width="40" height="40" version="1.0" viewBox="0 0 30 30"><defs><clipPath id="a"><path d="M2.313 5.36h25.402v18.144H2.313Zm0 0"/></clipPath></defs><g clip-path="url(#a)"><path fill="#E8112D" d="M27.71 20.71c0 1.544-1.26 2.794-2.82 2.794H5.138c-1.559 0-2.82-1.25-2.82-2.793V8.148c0-1.539 1.261-2.789 2.82-2.789H24.89c1.558 0 2.82 1.25 2.82 2.79Zm0 0"/></g><path fill="#FFCC4D" d="M15.348 10.234c.011-.73.664-1.23.691-2.203.469.582-.305 1.672-.031 2.305.125-.719.847-1.113 1.031-2.066.371.648-.566 1.605-.398 2.273.238-.691 1.015-.969 1.347-1.887.262.7-.812 1.5-.75 2.184.344-.645 1.157-.797 1.625-1.652.153.73-1.039 1.355-1.086 2.042.442-.585 1.27-.613 1.868-1.382.035.746-1.243 1.175-1.395 1.847.527-.508 1.348-.406 2.063-1.074-.086.742-1.41.969-1.672 1.61.605-.422 1.398-.192 2.21-.743-.203.719-1.546.739-1.906 1.332.664-.324 1.41.024 2.301-.39-.312.675-1.648.488-2.094 1.02.703-.22 1.391.241 2.332-.032-.418.621-1.703.227-2.226.684.73-.106 1.332.453 2.305.328-.508.55-1.715-.035-2.305.332.738.008 1.246.656 2.226.683-.59.465-1.691-.304-2.332-.03.727.124 1.125.839 2.094 1.019-.656.367-1.625-.563-2.3-.391.699.234.98 1.004 1.906 1.328-.707.262-1.516-.805-2.211-.742.656.34.812 1.144 1.672 1.61-.739.148-1.368-1.028-2.063-1.075.59.438.617 1.254 1.395 1.848-.75.035-1.188-1.227-1.868-1.38.516.524.41 1.333 1.086 2.04-.746-.082-.98-1.395-1.625-1.652.426.597.196 1.382.75 2.183-.726-.195-.75-1.531-1.347-1.883.328.657-.024 1.395.398 2.274-.687-.309-.496-1.63-1.031-2.07.219.699-.246 1.374.031 2.308-.629-.414-.23-1.687-.691-2.203.105.719-.457 1.316-.332 2.281-.555-.5.035-1.7-.336-2.281-.008.73-.664 1.23-.692 2.2-.468-.579.309-1.673.032-2.306-.125.723-.848 1.114-1.028 2.07-.37-.648.567-1.605.395-2.273-.239.692-1.016.97-1.348 1.883-.262-.695.816-1.496.75-2.183-.344.648-1.152.8-1.625 1.652-.148-.73 1.043-1.352 1.086-2.04-.441.583-1.266.61-1.867 1.38-.031-.742 1.242-1.176 1.394-1.848-.527.512-1.347.406-2.062 1.074.086-.738 1.414-.968 1.672-1.61-.602.423-1.399.196-2.207.743.199-.719 1.547-.738 1.902-1.328-.66.32-1.406-.027-2.297.39.313-.68 1.649-.492 2.09-1.019-.703.215-1.387-.242-2.328.031.414-.62 1.703-.23 2.226-.683-.73.105-1.332-.457-2.308-.332.508-.547 1.719.039 2.308-.328-.738-.012-1.246-.657-2.226-.684.586-.465 1.691.3 2.328.031-.727-.125-1.125-.84-2.09-1.02.656-.367 1.625.56 2.297.391-.695-.234-.977-1.004-1.902-1.332.703-.261 1.515.805 2.207.742-.653-.34-.809-1.14-1.672-1.609.738-.148 1.37 1.031 2.062 1.074-.59-.433-.617-1.254-1.394-1.843.754-.036 1.187 1.226 1.867 1.378-.512-.523-.41-1.335-1.086-2.039.746.082.98 1.395 1.629 1.649-.426-.594-.195-1.38-.75-2.18.723.195.746 1.531 1.344 1.883-.325-.656.027-1.395-.395-2.273.684.308.496 1.628 1.031 2.066-.218-.695.247-1.371-.03-2.305.624.41.23 1.684.687 2.203-.106-.722.46-1.316.336-2.28.554.5-.04 1.698.332 2.28m0 0"/><path fill="#E8112D" d="M15.016 17.855c1.91 0 3.46-1.535 3.46-3.425s-1.55-3.422-3.46-3.422-3.461 1.531-3.461 3.422c0 1.89 1.55 3.425 3.46 3.425m0 0"/><path fill="#FFCC4D" d="M15.016 11.258c.882 0 1.675.37 2.226.969-.867.09-1.601.289-2.226.597-.63-.308-1.364-.508-2.23-.597a3.03 3.03 0 0 1 2.23-.97m-.23 1.687q-.106.058-.204.121c-.562-.296-1.234-.488-2.035-.543q.054-.076.113-.148c.832.074 1.535.27 2.125.57m.46 0c.066.04.137.078.203.121.563-.296 1.235-.488 2.035-.543a2 2 0 0 0-.113-.148c-.832.074-1.535.27-2.125.57m-2.8-.27q-.048.078-.094.16c.746.017 1.37.185 1.886.466q.077-.06.164-.117c-.539-.29-1.187-.47-1.957-.508m-.094 2.973c-.258-.441-.356-.859-.356-1.406 0-.445.098-.867.274-1.246.722-.008 1.324.149 1.816.422-.727.59-1.32 1.281-1.734 2.23m1.433 1.317c-.137-.05-.285-.195-.41-.266.074-1.12.602-2.043 1.344-2.82.054.055.105.105.156.164-.687.793-1.129 1.824-1.09 2.922m3.8-4.29q.049.078.09.16c-.741.017-1.366.185-1.882.466-.05-.04-.11-.078-.164-.117.539-.29 1.184-.47 1.957-.508m0 0"/><path fill="#FFCC4D" d="M17.676 15.648c.262-.441.355-.859.355-1.406 0-.445-.097-.867-.273-1.246-.719-.008-1.324.149-1.817.422.73.59 1.325 1.281 1.735 2.23m-2.66-1.351c.539.86.644 1.805.613 2.867-.234.059-.36.063-.613.063-.254 0-.38-.004-.618-.063-.027-1.008.075-1.973.618-2.867m1.226 2.668c.133-.05.285-.152.41-.223-.07-1.12-.601-2.086-1.34-2.863-.054.055-.109.105-.16.164.692.793 1.125 1.824 1.09 2.922m-1.703-3.246c-.066-.051-.137-.106-.207-.153-.766.668-1.336 1.45-1.652 2.508.117.133.113.23.254.34.195-1.11.836-1.96 1.605-2.695m.953 0c.067-.051.137-.106.207-.153.766.668 1.332 1.465 1.653 2.524-.118.133-.137.215-.278.328-.195-1.113-.812-1.965-1.582-2.7m-.476-.645c.039.02.168.102.203.125-.055.031-.172.11-.203.13-.032-.02-.153-.102-.203-.13.035-.023.164-.105.203-.125m-.383.246c-.051.04-.13.098-.16.125.074.047.175.121.207.149.039-.035.113-.102.156-.133a3 3 0 0 0-.203-.14m.765 0c.051.04.13.098.157.125a2 2 0 0 0-.203.149 3 3 0 0 0-.16-.133c.054-.04.163-.117.206-.14m-.382.282.156.136a3 3 0 0 0-.156.153 3 3 0 0 0-.157-.153c.024-.023.125-.11.157-.136m0 0"/></svg>