<svg xmlns="http://www.w3.org/2000/svg" width="40" height="40" version="1.0" viewBox="0 0 30 30"><defs><clipPath id="a"><path d="M2.594 5.563H11v18.144H2.594Zm0 0"/></clipPath><clipPath id="b"><path d="M19 5.563h8.27v18.144H19Zm0 0"/></clipPath><clipPath id="c"><path d="M10 5.563h10v18.144H10Zm0 0"/></clipPath></defs><g clip-path="url(#a)"><path fill="#006847" d="M5.344 5.563c-1.516 0-2.742 1.25-2.742 2.789v12.562c0 1.543 1.226 2.793 2.742 2.793h4.793V5.563Zm0 0"/></g><g clip-path="url(#b)"><path fill="#CE1126" d="M24.523 5.563h-4.796v18.144h4.796c1.512 0 2.739-1.25 2.739-2.793V8.352c0-1.54-1.227-2.79-2.739-2.79m0 0"/></g><g clip-path="url(#c)"><path fill="#EEE" d="M10.137 5.563h9.59v18.144h-9.59Zm0 0"/></g><path fill="#A6D388" d="M18.36 14.633c0 1.93-1.536 3.492-3.426 3.492s-3.426-1.562-3.426-3.492h-.684c0 2.312 1.84 4.187 4.11 4.187s4.109-1.875 4.109-4.187Zm0 0"/><path fill="#5C913B" d="M11.879 16.219a.34.34 0 0 0-.32-.192.35.35 0 0 0-.29.508c.063.125.13.242.204.36v.007l.007.008v.004h.004v.004l.004.004v.008l.008.008v.003h.004v.004l.004.004v.004l.004.004v.004l.004.004v.004l.004.004q.055.08.109.156a.34.34 0 0 0 .48.07.356.356 0 0 0 .07-.488q-.165-.234-.296-.492m-.34-1.106a3 3 0 0 1-.027-.332q-.005-.128-.004-.25a.35.35 0 0 0-.332-.36l-.024.005a.34.34 0 0 0-.328.336 2 2 0 0 0 0 .218v.137l.004.004v.008q.007.169.031.332a.34.34 0 0 0 .352.3q.019 0 .031-.003a.35.35 0 0 0 .297-.395m3.625 3h-.004l-.082.008q-.247.007-.488-.016h-.047a.35.35 0 0 0-.328.313.35.35 0 0 0 .308.383l.082.008h.032l.004.003h.023q.159.013.316.008h.102l.004-.004h.035l.086-.003a.347.347 0 0 0 .313-.368.344.344 0 0 0-.356-.332m-1.668-.312a3.5 3.5 0 0 1-.496-.285.34.34 0 0 0-.207-.063.34.34 0 0 0-.27.152.353.353 0 0 0 .09.485l.008.008h.004l.004.004q.275.191.578.332c.05.027.102.035.156.035a.35.35 0 0 0 .297-.203.35.35 0 0 0-.164-.465m3.445-.278a.36.36 0 0 0-.171.055q-.242.157-.5.274a.348.348 0 0 0 .144.668.3.3 0 0 0 .117-.028l.094-.039.008-.008h.008l.004-.004h.003l.004-.003h.004l.004-.004h.008v-.004h.004l.004-.004h.008l.007-.008h.004l.008-.004h.004l.004-.004.008-.004h.004l.004-.004.011-.004.004-.003.016-.008h.004l.008-.008h.007l.016-.008.004-.004.008-.004.004-.004h.007q.002-.005.004-.004l.004-.003h.004v-.004l.012-.004h.004v-.004h.004l.007-.004h.004l.008-.008h.008v-.004h.004l.004-.004h.004v-.004h.008l.003-.003h.004v-.004h.004l.004-.004h.004V18.3h.008l.004-.004h.004v-.004h.008v-.004h.003l.004-.004h.004l.004-.004h.004v-.004h.008v-.004h.004v-.003h.008l.007-.008h.008v-.004l.008-.004.004-.004q.005-.001.016-.008.064-.035.128-.078a.356.356 0 0 0 .106-.484.39.39 0 0 0-.313-.157m1.762-3.222h-.02a.35.35 0 0 0-.328.347q0 .296-.046.579a.347.347 0 0 0 .277.402q.04.007.074.008a.35.35 0 0 0 .324-.293v-.012l.004-.004v-.012q.024-.134.035-.273v-.012l.004-.004-.004-.004.004-.003v-.024a5 5 0 0 0 .016-.348.344.344 0 0 0-.34-.347m-.305 1.883a.3.3 0 0 0-.18-.043.34.34 0 0 0-.284.18c-.094.167-.2.331-.32.48a.36.36 0 0 0 .054.492c.07.055.152.078.23.074a.34.34 0 0 0 .254-.133 5 5 0 0 0 .235-.328v-.008l.004-.003.004-.004.003-.004v-.004l.004-.004v-.004q.005.001.004-.004l.004-.004v-.004l.004-.004v-.004l.008-.007v-.004h.004v-.004l.004-.004v-.004h.004v-.008h.003v-.008h.004v-.003h.004v-.008h.004V16.8l.004-.004v-.004h.004v-.004l.004-.004v-.004l.004-.004v-.004l.004-.003v-.004l.008-.008v-.004l.003-.004v-.004l.004-.004v-.004h.004v-.008h.004v-.003l.004-.004v-.004l.004-.004v-.004h.004v-.008h.004V16.7l.004-.004v-.004l.004-.007.02-.032a.355.355 0 0 0-.138-.468m0 0"/><path fill="#55ACEE" d="M16.988 16.727q-.002.14-.156.27-.158.127-.445.226a4 4 0 0 1-.668.148 5.6 5.6 0 0 1-1.574 0 4 4 0 0 1-.665-.148 1.4 1.4 0 0 1-.445-.227q-.157-.129-.156-.27-.001-.136.156-.265.153-.128.445-.227a3.6 3.6 0 0 1 .665-.152 6 6 0 0 1 .789-.05q.41-.001.785.05c.254.035.472.086.668.152q.287.1.445.227.154.13.156.266m0 0"/><path fill="#FFCC4D" d="M16.3 16.727c0 .195-.097.359-.3.496-.2.132-.441.203-.727.203a1.3 1.3 0 0 1-.726-.203q-.3-.204-.3-.496 0-.288.3-.493a1.27 1.27 0 0 1 .726-.203q.429 0 .727.203c.203.137.3.301.3.493m0 0"/><path fill="#5C913B" d="M15.7 16.918a.351.351 0 0 1-.305-.516 5 5 0 0 1 .347-.554q-.145.007-.297.007a.36.36 0 0 1-.36-.351c0-.191.134-.348.321-.348h.059c.203 0 .41-.011.598-.031a.33.33 0 0 1 .277.11q.016-.013.031-.02.104-.072.192-.113a.35.35 0 0 1 .144-.067l.023-.004a.8.8 0 0 1 .258-.047c.11 0 .211.051.274.141.066.09.086.203.05.309-.054.187-.18.226-.398.273a.7.7 0 0 0-.164.09.35.35 0 0 1-.41-.024c.094.122.098.301 0 .426q-.175.229-.34.54a.35.35 0 0 1-.3.179m-.973-1.11h-.047c-.258-.035-.5-.09-.723-.156a.347.347 0 0 1-.23-.433l.003-.016-.007.02a.34.34 0 0 1-.47.132 2.9 2.9 0 0 1-.62-.476.354.354 0 0 1 0-.492.337.337 0 0 1 .484 0q.204.206.473.36c.144.081.21.26.156.417a.336.336 0 0 1 .406-.18c.188.055.395.102.614.13.187.027.32.202.297.394a.34.34 0 0 1-.336.3m-1.68-1.632c-.293 0-.672-.114-.899-.387-.351-.422-.558-.965-.527-1.379.008-.11-.098-.2-.2-.226-.062-.016-.167-.028-.214.082a.17.17 0 0 1-.227.086.18.18 0 0 1-.085-.235c.109-.234.347-.34.613-.273.242.066.48.289.457.594-.027.324.152.773.445 1.124.152.184.418.258.598.266.148.008.222-.027.238-.043-.039-.094-.547-.363-.762-.48a.45.45 0 0 1-.254-.328c-.046-.32.274-.641.582-.95.11-.109.215-.214.27-.289.063-.086.055-.144.043-.18-.047-.128-.254-.257-.5-.316-.227-.05-.383-.164-.457-.332-.102-.226-.047-.52.16-.898a.17.17 0 0 1 .235-.067.18.18 0 0 1 .066.239c-.195.355-.18.52-.149.582q.043.097.22.136c.288.067.636.243.745.536a.54.54 0 0 1-.09.507c-.07.098-.183.211-.3.332-.176.176-.508.504-.485.649.004.027.043.054.075.07.511.277.855.473.925.719a.33.33 0 0 1-.03.25c-.067.117-.204.191-.4.207q-.046.005-.093.004m0 0"/><path fill="#FFCC4D" d="M16.3 14.633q.002.292-.097.496-.1.201-.242.203-.142-.002-.242-.203a1.1 1.1 0 0 1-.102-.496q0-.288.102-.492.1-.204.242-.203.142-.001.242.203t.098.492M14.45 14.066c0 .204-.24.364-.532.364-.29 0-.527-.16-.527-.364 0-.199.238-.363.527-.363.293 0 .531.164.531.363m-.817-3.226c.035.144-.153.32-.422.383-.27.066-.516 0-.55-.149-.032-.148.155-.324.425-.386.27-.067.516 0 .547.152m0 0"/><path fill="#C1694F" d="M18.04 14.602c.058.05.163-.508.148-.684 0-.012-.02-.379.058-.645.047-.085.05-.753-.023-.93.058-.003.125-.023.136-.093-.265.098-.328-.57-.586-.957-.246-.387-.554-.61-.875-.844a.7.7 0 0 1 .11-.187c-.395.199-1.008-.528-1.914-.473-.203.02-.301.031-.352.16-.168.012-.34.051-.34.278 0 .054.047.156.157.156.148.043.265.008.367.219l.027.218s-.133-.172-.203-.199l.043-.094c-.07-.039-.191-.007-.191-.007s-.262-.125-.473-.094l-.043-.172c-.035.105-.117.101-.129.203-.023-.074-.055-.164-.078-.234-.074.101-.05.214-.078.32-.031.027-.09.027-.106-.043-.004-.086-.015-.094-.015-.195-.055.097-.117.144-.14.308l-.056-.183c0 .215-.18.343-.351.496-.047.09.008.09.012.136l.09.047.163-.011c.028.035.004.035.075.058.187.055.425-.18.609.188-.086.07-.168.242-.14.273.03 0-.07.047.066.004-.14.14-.238.328-.238.34-.02.043.054-.004.043.07l.03-.008c-.327.364-.007.75-.042.961.054.09.058-.004.129-.011.058.257.222.414.324.617h-.215c.008.098.09.187.16.273l-.144.047a.8.8 0 0 0-.242.192c-.047.117.23.144.363.164l-.004.14c.207.024.445-.043.445-.054l.051-.04.117.067c.04 0 .102-.16.074-.281.075.09.145.238.223.328l.07-.008c.063.105.153.207.215.312l.074.028c.04-.016.079-.02.098-.106l.035.059.114-.078.078-.016.058.098c.035-.012.07-.09.074-.172.036.07.043.066.07.086l.052-.113.285.27.215.01c.078.056.289.087.324 0 .172.079.375-.007.363-.093.16.067.406.024.406.012.028-.004.106-.078.032-.133-.524-.375-1.305-.992-1.602-1.14 0-.11-.082-.508-.172-.618l.07-.12c.207.194.282.175.391.206.113.094.156.238.273.367l.102.02a1.8 1.8 0 0 0-.379-.61c.113.06.3.211.426.325.082.136.105.25.18.425.054.036.109.168.101.06-.012-.204-.152-.524-.152-.548.222.18.222.461.289.63.058.085.086.202.11.175l-.067-.527-.035-.192c.164.094.222.465.3.91 0 .07.028.149.024.192.035.047.074.168.074.097 0 0 0-.722-.047-.89a1 1 0 0 1 .02-.23c.058.3.125.624.187.921v.219l.09.094q.024-.27.055-.54l-.07-.648v-.183c0-.063.058-.051.097.02.008.16.008.284.016.44.027.18.043.313.058.543.008.184.016.63.055.622m0 0"/></svg>