<svg xmlns="http://www.w3.org/2000/svg" width="40" height="40" version="1.0" viewBox="0 0 30 30"><defs><clipPath id="a"><path d="M19 6.133h8.727v18.144H19Zm0 0"/></clipPath><clipPath id="b"><path d="M2.32 6.133H11v18.144H2.32Zm0 0"/></clipPath><clipPath id="c"><path d="M10 6.133h10v18.144H10Zm0 0"/></clipPath></defs><g clip-path="url(#a)"><path fill="#DD2E44" d="M24.898 6.133h-5.644v18.144h5.644c1.559 0 2.82-1.25 2.82-2.789V8.926c0-1.543-1.261-2.793-2.82-2.793m0 0"/></g><g clip-path="url(#b)"><path fill="#265FB5" d="M5.148 6.133c-1.558 0-2.82 1.25-2.82 2.793v12.562c0 1.54 1.262 2.79 2.82 2.79h5.645V6.132Zm0 0"/></g><g clip-path="url(#c)"><path fill="#FFCC4D" d="M10.793 6.133h8.46v18.144h-8.46Zm0 0"/></g><path fill="#DD2E44" d="M13.613 13.113h2.82v2.094h-2.82Zm0 0"/><path fill="#269" d="M13.613 15.207v1.395l1.41.699 1.41-.7v-1.394Zm0 0"/><path fill="#A0724A" d="M13.613 10.32v.7h.703v1.394h1.41V10.32Zm2.114 6.98-.704.434-.707-.433-.703 2.094 1.41.695 1.41-.695Zm-2.82-5.581-.704-.7-.707.7v6.976l1.41-1.394v-4.887h.707Zm4.937-.7-.703.7-.707.695h.707v4.887l1.41 1.394V11.72Zm0 0"/><path fill="#FFCC4D" d="M13.777 14.922h.375v.285h-.375Zm2.118 0h.375v.285h-.375Zm0 0"/><path fill="#77B255" d="M13.355 18.516c-.074.043-.183-.008-.246-.11l-1.574-2.699c-.062-.105-.05-.223.027-.266l.094-.054c.074-.043.188.008.246.11l1.575 2.698c.062.106.05.223-.024.266Zm0 0"/><path fill="#FFCC4D" d="M18.422 15.48c.074.043.086.16.027.262l-1.547 2.653c-.058.101-.168.152-.246.109l-.093-.055c-.075-.043-.086-.16-.028-.265l1.547-2.649c.059-.101.168-.152.242-.11Zm0 0"/><path fill="#DD2E44" d="m13.613 17.3-.707.696v.7l.707-.7Zm2.82 0v.696l.708.7v-.7Zm0 0"/><path fill="#FFCC4D" d="m15.023 14.508-.707-.7v2.067l.707.727.704-.727v-2.066Zm0 0"/></svg>