<svg xmlns="http://www.w3.org/2000/svg" width="40" height="40" version="1.0" viewBox="0 0 30 30"><defs><clipPath id="a"><path d="M3 11h23.95v7H3Zm0 0"/></clipPath><clipPath id="b"><path d="M3 5.852h23.95V12H3Zm0 0"/></clipPath><clipPath id="c"><path d="M3 17h23.95v6.273H3Zm0 0"/></clipPath></defs><g clip-path="url(#a)"><path fill="#EEE" d="M3.008 11.883H26.94v5.36H3.008Zm0 0"/></g><g clip-path="url(#b)"><path fill="#AE1F28" d="M24.281 5.852H5.668c-1.469 0-2.66 1.203-2.66 2.68v3.35H26.94v-3.35c0-1.477-1.191-2.68-2.66-2.68m0 0"/></g><g clip-path="url(#c)"><path fill="#20478B" d="M5.668 23.273h18.613a2.67 2.67 0 0 0 2.66-2.68v-3.35H3.008v3.35a2.67 2.67 0 0 0 2.66 2.68m0 0"/></g></svg>