<svg xmlns="http://www.w3.org/2000/svg" width="40" height="40" version="1.0" viewBox="0 0 30 30"><defs><clipPath id="a"><path d="M2.652 5.867h23.953V23.29H2.652Zm0 0"/></clipPath><clipPath id="b"><path d="M12 5.867h14.605V23.29H12Zm0 0"/></clipPath></defs><g clip-path="url(#a)"><path fill="#060" d="M26.602 20.61a2.67 2.67 0 0 1-2.66 2.68H5.315a2.67 2.67 0 0 1-2.66-2.68V8.546c0-1.477 1.192-2.68 2.66-2.68h18.625c1.47 0 2.66 1.203 2.66 2.68Zm0 0"/></g><g clip-path="url(#b)"><path fill="#D52B1E" d="M23.941 5.867H12.633V23.29H23.94a2.67 2.67 0 0 0 2.66-2.68V8.547c0-1.477-1.19-2.68-2.66-2.68m0 0"/></g><path fill="#FFCC4D" d="M12.633 9.219c-2.938 0-5.32 2.398-5.32 5.36 0 2.96 2.382 5.358 5.32 5.358 2.937 0 5.32-2.398 5.32-5.359s-2.383-5.36-5.32-5.36m2.656 3.976 1.39-.933a4.8 4.8 0 0 1 .59 1.933Zm-1.992 5.403h1.726a4.6 4.6 0 0 1-1.726.617Zm-5.3-4.403a4.7 4.7 0 0 1 .57-1.898l1.066 1.074Zm0 .766 2.491 1.258.297-.602-2.066-1.039 1.41-.707.937.945.47-.476-.782-.785.031-.016-.297-.601-.23.117-.649-.653.973.16.11-.66-1.672-.28a4.64 4.64 0 0 1 2.949-1.68v7.988H9.906l1.578-1.063-.367-.558-1.996 1.34.012.015a4.67 4.67 0 0 1-1.137-2.703m3.972 4.254a4.6 4.6 0 0 1-1.727-.617h1.727Zm4.18-1.567-1.95-1.968-.472.476.316.317-.266.394 1.582 1.063h-2.062V9.94c.879.13 1.68.496 2.328 1.047l-1.766.594.207.633 1.996-.668-.066-.207q.165.174.313.367l-1.868 1.254.188.277-.149.301 2.067 1.04-2.067 1.038.297.602 2.493-1.258a4.7 4.7 0 0 1-1.122 2.687m0 0"/><path fill="#D52B1E" d="M9.973 11.227v4.691a2.67 2.67 0 0 0 2.66 2.68 2.67 2.67 0 0 0 2.66-2.68v-4.691Zm0 0"/><path fill="#FFF" d="M10.637 11.898v4.02c0 1.11.894 2.012 1.996 2.012a2.006 2.006 0 0 0 1.996-2.012v-4.02Zm0 0"/><path fill="#829ACD" d="M11.3 13.906h2.66v1.344H11.3Zm0 0"/><path fill="#829ACD" d="M11.969 13.238h1.328v2.68h-1.328Zm0 0"/><path fill="#039" d="M10.637 13.906h.664v1.344h-.664Zm1.332 0h1.328v1.344h-1.328Zm1.992 0h.668v1.344h-.668Zm-1.992 2.012h1.328v1.34h-1.328Zm0-4.02h1.328v1.34h-1.328Zm0 0"/></svg>