<svg xmlns="http://www.w3.org/2000/svg" width="40" height="40" version="1.0" viewBox="0 0 30 30"><defs><clipPath id="a"><path d="M3.387 18h23.226v5.988H3.387Zm0 0"/></clipPath><clipPath id="b"><path d="M3.387 12h23.226v7H3.387Zm0 0"/></clipPath><clipPath id="c"><path d="M3.387 7.297h23.226V13H3.387Zm0 0"/></clipPath></defs><g clip-path="url(#a)"><path fill="#CE2028" d="M26.605 21.422a2.573 2.573 0 0 1-2.578 2.566H5.973a2.573 2.573 0 0 1-2.578-2.566v-2.57h23.21Zm0 0"/></g><g clip-path="url(#b)"><path fill="#22408C" d="M3.395 12.43h23.21v6.422H3.395Zm0 0"/></g><g clip-path="url(#c)"><path fill="#EEE" d="M24.027 7.297H5.973a2.573 2.573 0 0 0-2.578 2.566v2.567h23.21V9.863a2.573 2.573 0 0 0-2.578-2.566m0 0"/></g></svg>