<svg xmlns="http://www.w3.org/2000/svg" width="40" height="40" version="1.0" viewBox="0 0 30 30"><defs><clipPath id="a"><path d="M2.762 5.68h24.676v17.422H2.762Zm0 0"/></clipPath><clipPath id="b"><path d="M2.762 10h24.676v9H2.762Zm0 0"/></clipPath></defs><g clip-path="url(#a)"><path fill="#C60A1D" d="M27.434 20.422c0 1.48-1.227 2.68-2.743 2.68H5.504c-1.512 0-2.738-1.2-2.738-2.68V8.359c0-1.476 1.226-2.68 2.738-2.68H24.69c1.516 0 2.743 1.204 2.743 2.68Zm0 0"/></g><g clip-path="url(#b)"><path fill="#FFC400" d="M2.766 10.371h24.668v8.04H2.766Zm0 0"/></g><path fill="#EA596E" d="M8.93 13.719v2.011c0 1.11.922 2.012 2.058 2.012 1.133 0 2.055-.902 2.055-2.012V13.72Zm0 0"/><path fill="#F4A2B2" d="M10.988 13.05h2.055v2.012h-2.055Zm0 0"/><path fill="#DD2E44" d="M8.93 13.05h2.058v2.012H8.93Zm0 0"/><path fill="#EA596E" d="M13.043 12.047q.001.2-.156.383a1.35 1.35 0 0 1-.446.328 2.8 2.8 0 0 1-.668.215 4 4 0 0 1-1.574 0 2.8 2.8 0 0 1-.664-.215 1.3 1.3 0 0 1-.445-.328.58.58 0 0 1-.16-.383q0-.2.16-.387.152-.181.445-.324a2.8 2.8 0 0 1 .664-.219 4 4 0 0 1 1.574 0c.254.051.473.125.668.219q.287.142.446.324a.6.6 0 0 1 .156.387m0 0"/><path fill="#FFAC33" d="M13.043 11.543c0 .066-.05.133-.156.191a1.7 1.7 0 0 1-.446.164 5 5 0 0 1-.668.11c-.25.023-.515.039-.785.039-.273 0-.535-.016-.789-.04a5 5 0 0 1-.664-.109 1.6 1.6 0 0 1-.445-.164c-.106-.058-.16-.125-.16-.191q0-.098.16-.191.152-.095.445-.165a5 5 0 0 1 .664-.109c.254-.023.516-.039.79-.039.269 0 .534.016.784.04a5 5 0 0 1 .668.108q.287.07.446.165.157.092.156.191m0 0"/><path fill="#99AAB5" d="M7.563 13.05h.683v4.692h-.684Zm6.164 0h.687v4.692h-.687Zm0 0"/><path fill="#66757F" d="M6.875 17.07H8.93v.672H6.875Zm6.168 0h2.055v.672h-2.055Zm-5.48-4.691h.683v.672h-.684Zm6.164 0h.687v.672h-.687Zm0 0"/></svg>