<svg xmlns="http://www.w3.org/2000/svg" width="40" height="40" version="1.0" viewBox="0 0 30 30"><defs><clipPath id="a"><path d="M3.387 6.133h23.226v16.695H3.387Zm0 0"/></clipPath></defs><g clip-path="url(#a)"><path fill="#006AA7" d="M13.387 22.828h10.64c1.422 0 2.578-1.152 2.578-2.89v-3.852H13.387Zm10.64-16.695h-10.64v6.742h13.218V8.703a2.577 2.577 0 0 0-2.578-2.57m-13.863 0H5.973a2.576 2.576 0 0 0-2.578 2.566v4.176h6.77Zm-6.77 9.953v3.855c.004 1.739 1.157 2.887 2.579 2.887h4.191v-6.742Zm0 0"/><path fill="#FECC00" d="M13.387 6.133h-3.223v6.742h-6.77v3.21h6.77v6.743h3.223v-6.742h13.218v-3.211H13.387Zm0 0"/></g></svg>