<svg xmlns="http://www.w3.org/2000/svg" width="40" height="40" version="1.0" viewBox="0 0 30 30"><defs><clipPath id="a"><path d="M2.625 6.133h24.676V13H2.625Zm0 0"/></clipPath><clipPath id="b"><path d="M2.625 18h24.676v6.277H2.625Zm0 0"/></clipPath><clipPath id="c"><path d="M2.625 12h24.676v7H2.625Zm0 0"/></clipPath></defs><g clip-path="url(#a)"><path fill="#C00" d="M24.55 6.133H5.376c-1.512 0-2.738 1.25-2.738 2.793v3.14h24.652v-3.14c0-1.543-1.227-2.793-2.738-2.793m0 0"/></g><g clip-path="url(#b)"><path fill="#060" d="M2.637 21.488c0 1.54 1.226 2.79 2.738 2.79h19.176c1.512 0 2.738-1.25 2.738-2.79v-3.14H2.637Zm0 0"/></g><g clip-path="url(#c)"><path fill="#EEE" d="M2.637 12.066h24.652v6.282H2.637Zm0 0"/></g><path fill="#FFAC33" d="M13.68 17.617c-.278.082-.442-.191-.442-.191l.223-.098.105-.351.223.324h.25s-.059.23-.36.316m3.527.305c-.43-.129-1.426-.305-2.184-.305-.757 0-1.753.176-2.183.305-.43.133-.328.55 0 .422.328-.133 1.125-.262 2.183-.262 1.055 0 1.856.129 2.184.262.328.129.426-.29 0-.422m-2.012-.785-.172-.29-.171.29-.301.133s.215.246.472.246c.258 0 .473-.246.473-.246Zm1.168.48c.282.082.446-.191.446-.191l-.223-.098-.106-.351-.222.324h-.25s.058.23.355.316m0 0"/><path fill="#FFAC33" d="M18.004 16.742c-.07-.187-.246.313-.727.235-.543-.086-.656-.641-.656-.641s-.426.437-.871.234c-.441-.203-.555-.492-.555-.812s-.039-.559 0-.684c.063-.203.301-.351.543-.117.2-.289-.144-.902-.715-.902-.57 0-.914.613-.714.902.246-.234.48-.086.543.117.043.125 0 .364 0 .684s-.114.61-.555.812-.871-.234-.871-.234-.114.555-.656.64c-.48.079-.657-.421-.727-.234-.07.188.312.742.855.563s.614-.649.614-.649.281.524.93.32c.488-.152.581-.624.581-.624s.098.472.586.625c.649.203.926-.32.926-.32s.074.468.617.648c.54.18.926-.38.852-.563m-3.453-2.164c.144-.308.472-.262.472-.262s.329-.046.473.262c-.242.027-.473.219-.473.219s-.23-.188-.472-.219m-2.781.695.136.426h.438l-.356.262.137.426-.355-.266-.356.266.137-.426-.356-.262h.438Zm.43-1.558.132.426h.441l-.355.265.137.422-.356-.262-.355.262.133-.422-.352-.265h.438Zm1.148-1.25.132.426h.442l-.356.265.133.422-.351-.262-.356.262.133-.422-.352-.265h.438Zm1.675-.422.133.426h.442l-.356.261.137.426-.356-.261-.355.261.137-.426-.356-.261h.438Zm3.133 3.23-.136.426h-.438l.352.262-.133.426.355-.266.352.266-.133-.426.355-.262h-.44Zm-.43-1.558-.136.426h-.438l.356.265-.137.422.356-.262.355.262-.137-.422.356-.265h-.438Zm-1.148-1.25-.137.426h-.437l.355.265-.136.422.355-.262.356.262-.137-.422.355-.265h-.437Zm0 0"/></svg>