<svg xmlns="http://www.w3.org/2000/svg" width="40" height="40" version="1.0" viewBox="0 0 30 30"><defs><clipPath id="a"><path d="M2.262 5.324h25.406V9H2.262Zm0 0"/></clipPath><clipPath id="b"><path d="M2.262 8h25.406v3H2.262Zm0 0"/></clipPath><clipPath id="c"><path d="M2.262 20h25.406v3.469H2.262Zm0 0"/></clipPath><clipPath id="d"><path d="M2.262 17h25.406v4H2.262Zm0 0"/></clipPath><clipPath id="e"><path d="M2.262 10h25.406v8H2.262Zm0 0"/></clipPath></defs><g clip-path="url(#a)"><path fill="#ED1C24" d="M24.836 5.324H5.094c-1.555 0-2.82 1.25-2.82 2.79h25.382c0-1.54-1.265-2.79-2.82-2.79m0 0"/></g><g clip-path="url(#b)"><path fill="#EEE" d="M2.273 8.113h25.383v2.793H2.273Zm0 0"/></g><g clip-path="url(#c)"><path fill="#ED1C24" d="M24.836 23.469H5.094c-1.555 0-2.82-1.25-2.82-2.793h25.382c0 1.543-1.265 2.793-2.82 2.793m0 0"/></g><g clip-path="url(#d)"><path fill="#EEE" d="M2.273 17.883h25.383v2.793H2.273Zm0 0"/></g><g clip-path="url(#e)"><path fill="#241D4F" d="M2.273 10.906h25.383v6.977H2.273Zm0 0"/></g></svg>