<svg xmlns="http://www.w3.org/2000/svg" width="40" height="40" version="1.0" viewBox="0 0 30 30"><defs><clipPath id="a"><path d="M2.348 6.262H27.75v18.144H2.348Zm0 0"/></clipPath><clipPath id="b"><path d="M5 6.262h6v18.144H5Zm0 0"/></clipPath><clipPath id="c"><path d="M5 6.262h6V21H5Zm0 0"/></clipPath><clipPath id="d"><path d="M5 6.262h5V10H5Zm0 0"/></clipPath></defs><g clip-path="url(#a)"><path fill="#29AE66" d="M27.742 21.613c0 1.543-1.262 2.793-2.82 2.793H5.176c-1.559 0-2.82-1.25-2.82-2.793V9.051c0-1.54 1.261-2.79 2.82-2.79h19.746c1.558 0 2.82 1.25 2.82 2.79Zm0 0"/></g><g clip-path="url(#b)"><path fill="#CA3745" d="M5.176 6.262h4.937v18.144H5.176Zm0 0"/></g><g clip-path="url(#c)"><path fill="#FAAE29" d="m5.176 8.57.57.563-.156.152.226.227.149-.149.469.461-.465.461-.192-.191-.203.203.172.168-.57.496v-.262l.312-.293-.168-.133.43-.421.246.21.23-.23-.246-.242-.175.168-.45-.445.168-.168-.347-.31Zm0 3.23.57.563-.156.153.226.222.149-.148.469.465-.465.457-.192-.192-.203.203.172.168-.57.496v-.261l.312-.293-.168-.133.43-.422.246.211.23-.226-.246-.247-.175.172-.45-.449.168-.168-.347-.309Zm0 3.294.57.562-.156.153.226.222.149-.148.469.465-.465.457-.192-.192-.203.203.172.168-.57.496v-.261l.312-.293-.168-.133.43-.422.246.211.23-.227-.246-.246-.175.172-.45-.449.168-.168-.347-.309Zm0 3.25.57.558-.156.157.226.222.149-.148.469.465-.465.457-.192-.192-.203.203.172.168-.57.496v-.261l.312-.293-.168-.133.43-.422.246.211.23-.23-.246-.243-.175.172-.45-.449.168-.168-.347-.309Zm4.937-9.774-.566.563.152.152-.226.227-.149-.149-.469.461.465.461.192-.191.207.203-.172.168.566.496v-.262l-.312-.293.168-.133-.426-.421-.25.21-.23-.23.246-.242.175.168.45-.445-.168-.168.347-.31ZM5.574 6.742l.203-.203.192.191.465-.457-.012-.011H6.21l.016.015-.23.23-.247-.214-.43.426.168.133-.312.293v.261l.57-.496ZM9.97 6.72l-.426-.426-.25.215-.23-.23.019-.016h-.215l-.012.011.465.457.192-.19.207.202-.172.168.566.496v-.261l-.312-.293Zm.144 5.082-.566.562.152.153-.226.222-.149-.148-.469.465.465.457.192-.192.207.203-.172.168.566.496v-.261l-.312-.293.168-.133-.426-.422-.25.211-.23-.226.246-.247.175.172.45-.449-.168-.168.347-.309Zm0 3.293-.566.562.152.153-.226.222-.149-.148-.469.465.465.457.192-.192.207.203-.172.168.566.496v-.261l-.312-.293.168-.133-.426-.422-.25.211-.23-.227.246-.246.175.172.45-.449-.168-.168.347-.309Zm0 3.25-.566.558.152.157-.226.222-.149-.148-.469.465.465.457.192-.192.207.203-.172.168.566.496v-.261l-.312-.293.168-.133-.426-.422-.25.211-.23-.23.246-.243.175.172.45-.449-.168-.168.347-.309Zm0 0"/></g><g clip-path="url(#d)"><path fill="#29AE66" d="M9.422 7.613v-.277l-.41-.246h-.309l-.5-.258H7.086l-.5.258h-.309l-.41.246v.277l-.383.23v.641l.383.235v.273l.41.25h.309l.5.254h1.117l.5-.254h.309l.41-.25V8.72l.383-.235v-.64Zm0 0"/></g><path fill="#FAAE29" d="M5.832 8.164v-.273l.324-.2v-.234l.352-.21h.265l.426-.22h.477v1.137Zm0 0"/><path fill="#FFF" d="M5.8 8.164v.274l.329.199v.234l.351.211h.262l.426.219h.477V8.164Zm3.688 0v-.273l-.328-.196v-.238l-.348-.21h-.265l-.426-.22h-.476v1.137Zm0 0"/><path fill="#FAAE29" d="M9.488 8.164v.274l-.328.199v.234l-.348.211h-.265l-.426.219h-.476V8.164ZM5.832 10.84h.477v.508h-.477Zm.477-.074h.476v.511H6.31Zm.476-.18h.477v.508h-.477Zm2.211.254h.477v.508h-.477Zm-.476-.074h.476v.511H8.52Zm-.477-.18h.477v.508h-.477Zm0 0"/><path fill="#FAAE29" d="M7.262 10.332h.781v.629h-.781Zm-1.43 1.152h.477v.508h-.477Zm.477.07h.476v.512H6.31Zm.476.184h.477v.508h-.477Zm2.211-.254h.477v.508h-.477Zm-.476.07h.476v.512H8.52Zm-.477.184h.477v.508h-.477Zm0 0"/><path fill="#FAAE29" d="M7.262 11.871h.781v.629h-.781Zm0 0"/><path fill="#FFF" d="M8.387 19.945H6.934l-1.028.649v.918l1.028.652h1.453l1.023-.652v-.918Zm0 0"/><path fill="#29AE66" d="M8.27 13.691H7.05l-.859.598v.852l.86.597H8.27l.859-.597v-.852Zm.515 1.352-.66.457h-.934l-.66-.457v-.652l.66-.461h.934l.66.46Zm-.37 4.855H6.901l-1.07.68v.953l1.07.68h1.512l1.07-.68v-.953Zm.75 1.551-.884.559H7.035l-.879-.559v-.789l.88-.558H8.28l.883.558Zm.07-3.719v-.308h-.313v-.344H6.39v.344h-.352v.308h-.305v.454h.305v.332h.352v.367h2.53v-.367h.313v-.332h.364v-.454Zm-.477.961h-2.2v-1.453h2.2Zm0 0"/><path fill="#29AE66" d="m7.645 16.902-1.336.785v.508l1.336.86 1.351-.828v-.54Zm0 0"/><path fill="#CA3745" d="m7.047 20.754.598-.344.597.344v.683l-.597.34-.598-.34Zm0 0"/><path fill="#FAAE29" d="m8.242 23.766-.172.117s-.144-.278-.543-.305c-.398-.031-.617.129-.953.152-.34.02-1.379-.757-.84-1.953.485.344.235.766.457.973.22.203.454.34.543.582.09.238.512.04.793.086.442.07.715.348.715.348m0 0"/><path fill="#FAAE29" d="m7.047 23.766.172.117s.144-.278.543-.305c.398-.031.617.129.957.152.336.02 1.379-.757.836-1.953-.485.344-.235.766-.453.973-.223.203-.457.34-.547.582-.09.238-.512.04-.793.086-.442.07-.715.348-.715.348m0 0"/><path fill="#FFF" d="M15.176 8.555c.46.394.754.968.754 1.617a2.156 2.156 0 0 1-2.168 2.148c-.414 0-.793-.12-1.125-.316.406.434.976.71 1.62.71a2.194 2.194 0 0 0 2.204-2.183c0-.879-.527-1.629-1.285-1.976m-1.645-.293-.176.336.274.27-.379-.06-.176.337-.058-.375-.38-.06.344-.17-.062-.376.273.27Zm0 0"/><path fill="#FFF" d="m14.61 8.91-.172.336.269.27-.379-.063-.172.34-.058-.375-.38-.059.34-.171L14 8.812l.27.27Zm-1.079.461-.176.34.274.266-.379-.059-.176.336-.058-.371-.38-.059.344-.172-.062-.375.273.266Zm-1.125.566-.172.336.27.27-.379-.059-.172.336-.062-.375-.375-.058.34-.172-.06-.371.27.265Zm1.125.63-.176.335.274.27-.379-.059-.176.336-.058-.375-.38-.058.344-.172-.062-.371.273.265Zm0 0"/><path fill="#CA3745" d="M7.336 17.266h.644v.43h-.644Zm0 .98h.644v.426h-.644Zm0 0"/><path fill="#FAAE29" d="M6.309 17.766h.882v.43H6.31Zm1.82 0h.867v.43H8.13Zm0 0"/></svg>