<svg xmlns="http://www.w3.org/2000/svg" width="40" height="40" version="1.0" viewBox="0 0 30 30"><defs><clipPath id="a"><path d="M2.348 5.383h24.68v18.144H2.347Zm0 0"/></clipPath></defs><g clip-path="url(#a)"><path fill="#E30917" d="M27.02 20.738c0 1.54-1.227 2.79-2.743 2.79H5.094c-1.512 0-2.739-1.25-2.739-2.79V8.176c0-1.543 1.227-2.793 2.739-2.793h19.183c1.516 0 2.743 1.25 2.743 2.793Zm0 0"/></g><path fill="#EEE" d="M13.316 18.645c-2.27 0-4.109-1.875-4.109-4.188s1.84-4.187 4.11-4.187c.898 0 1.726.296 2.402.793a4.99 4.99 0 0 0-3.774-1.739c-2.78 0-5.035 2.297-5.035 5.133s2.254 5.133 5.035 5.133a4.98 4.98 0 0 0 3.774-1.742c-.676.5-1.504.797-2.403.797m2.68-4.028 1.672.39.152 1.743.883-1.5 1.672.395-1.129-1.32.883-1.497-1.578.684-1.125-1.32.148 1.742Zm0 0"/></svg>