<svg xmlns="http://www.w3.org/2000/svg" width="40" height="40" version="1.0" viewBox="0 0 30 30"><defs><clipPath id="a"><path d="M2.379 6.188H27.78v16.69H2.38Zm0 0"/></clipPath><clipPath id="b"><path d="M2.379 7H27.78v2H2.38Zm0 0"/></clipPath><clipPath id="c"><path d="M2.379 10H27.78v2H2.38Zm0 0"/></clipPath><clipPath id="d"><path d="M2.379 12H27.78v2H2.38Zm0 0"/></clipPath><clipPath id="e"><path d="M2.379 15H27.78v2H2.38Zm0 0"/></clipPath><clipPath id="f"><path d="M2.379 17H27.78v3H2.38Zm0 0"/></clipPath><clipPath id="g"><path d="M2.379 20H27.78v2H2.38Zm0 0"/></clipPath><clipPath id="h"><path d="M2.379 6.188H16V16H2.379Zm0 0"/></clipPath><clipPath id="i"><path d="M3 6.188h2V8H3Zm0 0"/></clipPath><clipPath id="j"><path d="M5 6.188h2V8H5Zm0 0"/></clipPath><clipPath id="k"><path d="M7 6.188h2V8H7Zm0 0"/></clipPath><clipPath id="l"><path d="M9 6.188h2V8H9Zm0 0"/></clipPath><clipPath id="m"><path d="M11 6.188h2V8h-2Zm0 0"/></clipPath><clipPath id="n"><path d="M13 6.188h2V8h-2Zm0 0"/></clipPath></defs><g clip-path="url(#a)"><path fill="#981A1F" d="M26.23 22.879H3.934a1.54 1.54 0 0 1-1.547-1.54V7.724c0-.848.691-1.54 1.547-1.54H26.23c.856 0 1.547.692 1.547 1.54V21.34c0 .851-.691 1.539-1.547 1.539"/></g><g clip-path="url(#b)"><path fill="#FFF" d="M27.777 8.754H2.387V7.469h25.39z"/></g><g clip-path="url(#c)"><path fill="#FFF" d="M27.777 11.32H2.387v-1.28h25.39z"/></g><g clip-path="url(#d)"><path fill="#FFF" d="M27.777 13.89H2.387v-1.285h25.39z"/></g><g fill="#FFF" clip-path="url(#e)"><path d="M27.777 16.457H2.387v-1.281h25.39z"/><path d="M27.777 16.457H2.387v-1.281h25.39z"/></g><g clip-path="url(#f)"><path fill="#FFF" d="M27.777 19.027H2.387v-1.285h25.39z"/></g><g clip-path="url(#g)"><path fill="#FFF" d="M27.777 21.594H2.387v-1.282h25.39z"/></g><g clip-path="url(#h)"><path fill="#1E5380" d="M15.082 15.176H2.387V7.723c0-.848.691-1.54 1.547-1.54h11.148z"/></g><g clip-path="url(#i)"><path fill="#FFF" d="m3.648 7.488-.238.125.047-.265-.195-.188.27-.039.116-.238.122.238.265.04-.191.187.047.265z"/></g><g clip-path="url(#j)"><path fill="#FFF" d="m5.684 7.488-.239.125.043-.265-.191-.188.266-.039.12-.238.122.238.265.04-.191.187.043.265z"/></g><g clip-path="url(#k)"><path fill="#FFF" d="m7.719 7.488-.239.125.043-.265-.191-.188.266-.039.12-.238.118.238.27.04-.196.187.047.265z"/></g><g clip-path="url(#l)"><path fill="#FFF" d="m9.75 7.488-.238.125.047-.265-.196-.188.27-.039.117-.238.121.238.27.04-.196.187.047.265z"/></g><g clip-path="url(#m)"><path fill="#FFF" d="m11.785 7.488-.238.125.047-.265-.196-.188.27-.039.117-.238.121.238.266.04-.192.187.043.265z"/></g><g clip-path="url(#n)"><path fill="#FFF" d="m13.82 7.488-.238.125.043-.265-.191-.188.265-.039.121-.238.121.238.266.04-.195.187.047.265z"/></g><path fill="#FFF" d="m3.648 9.203-.238.129.047-.266-.195-.187.27-.04.116-.241.122.242.265.039-.191.187.047.266zM5.684 9.203l-.239.129.043-.266-.191-.187.266-.04.12-.241.122.242.265.039-.191.187.043.266zM7.719 9.203l-.239.129.043-.266-.191-.187.266-.04.12-.241.118.242.27.039-.196.187.047.266zM9.75 9.203l-.238.129.047-.266-.196-.187.27-.04.117-.241.121.242.27.039-.196.187.047.266zM11.785 9.203l-.238.129.047-.266-.196-.187.27-.04.117-.241.121.242.266.039-.192.187.043.266zM13.82 9.203l-.238.129.043-.266-.191-.187.265-.04.121-.241.121.242.266.039-.195.187.047.266zM3.648 12.637l-.238.125.047-.266-.195-.187.27-.04.116-.242.122.243.265.039-.191.187.047.266zM5.684 12.637l-.239.125.043-.266-.191-.187.266-.04.12-.242.122.243.265.039-.191.187.043.266zM7.719 12.637l-.239.125.043-.266-.191-.187.266-.04.12-.242.118.243.27.039-.196.187.047.266zM9.75 12.637l-.238.125.047-.266-.196-.187.27-.04.117-.242.121.243.27.039-.196.187.047.266zM11.785 12.637l-.238.125.047-.266-.196-.187.27-.04.117-.242.121.243.266.039-.192.187.043.266zM13.82 12.637l-.238.125.043-.266-.191-.187.265-.04.121-.242.121.243.266.039-.195.187.047.266zM3.648 10.922l-.238.125.047-.266-.195-.187.27-.04.116-.242.122.243.265.039-.191.187.047.266zM5.684 10.922l-.239.125.043-.266-.191-.187.266-.04.12-.242.122.243.265.039-.191.187.043.266zM7.719 10.922l-.239.125.043-.266-.191-.187.266-.04.12-.242.118.243.27.039-.196.187.047.266zM9.75 10.922l-.238.125.047-.266-.196-.187.27-.04.117-.242.121.243.27.039-.196.187.047.266zM11.785 10.922l-.238.125.047-.266-.196-.187.27-.04.117-.242.121.243.266.039-.192.187.043.266zM13.82 10.922l-.238.125.043-.266-.191-.187.265-.04.121-.242.121.243.266.039-.195.187.047.266zM3.648 14.352l-.238.125.047-.266-.195-.188.27-.039.116-.238.122.238.265.04-.191.187.047.266zM5.684 14.352l-.239.125.043-.266-.191-.188.266-.039.12-.238.122.238.265.04-.191.187.043.266zM7.719 14.352l-.239.125.043-.266-.191-.188.266-.039.12-.238.118.238.27.04-.196.187.047.266zM9.75 14.352l-.238.125.047-.266-.196-.188.27-.039.117-.238.121.238.27.04-.196.187.047.266zM11.785 14.352l-.238.125.047-.266-.196-.188.27-.039.117-.238.121.238.266.04-.192.187.043.266zM13.82 14.352l-.238.125.043-.266-.191-.188.265-.039.121-.238.121.238.266.04-.195.187.047.266zM4.668 8.348l-.242.125.047-.266-.192-.187.266-.04.121-.242.117.242.27.04-.196.187.047.266zM6.7 8.348l-.24.125.048-.266-.195-.187.269-.04.117-.242.121.242.266.04-.191.187.046.266zM8.734 8.348l-.238.125.047-.266-.195-.187.27-.04.116-.242.121.242.266.04-.191.187.043.266zM10.77 8.348l-.239.125.043-.266-.191-.187.265-.04.122-.242.117.242.27.04-.196.187.047.266zM12.805 8.348l-.242.125.046-.266-.191-.187.266-.04.12-.242.118.242.27.04-.196.187.047.266zM4.668 10.063l-.242.124.047-.265-.192-.188.266-.039.121-.238.117.238.27.04-.196.187.047.265zM6.7 10.063l-.24.124.048-.265-.195-.188.269-.039.117-.238.121.238.266.04-.191.187.046.265zM8.734 10.063l-.238.124.047-.265-.195-.188.27-.039.116-.238.121.238.266.04-.191.187.043.265zM10.77 10.063l-.239.124.043-.265-.191-.188.265-.039.122-.238.117.238.27.04-.196.187.047.265zM12.805 10.063l-.242.124.046-.265-.191-.188.266-.039.12-.238.118.238.27.04-.196.187.047.265zM4.668 13.496l-.242.125.047-.266-.192-.187.266-.04.121-.241.117.242.27.039-.196.187.047.266zM6.7 13.496l-.24.125.048-.266-.195-.187.269-.04.117-.241.121.242.266.039-.191.187.046.266zM8.734 13.496l-.238.125.047-.266-.195-.187.27-.04.116-.241.121.242.266.039-.191.187.043.266zM10.77 13.496l-.239.125.043-.266-.191-.187.265-.04.122-.241.117.242.27.039-.196.187.047.266zM12.805 13.496l-.242.125.046-.266-.191-.187.266-.04.12-.241.118.242.27.039-.196.187.047.266zM4.668 11.777l-.242.125.047-.261-.192-.192.266-.035.121-.242.117.242.27.035-.196.192.047.261zM6.7 11.777l-.24.125.048-.261-.195-.192.269-.035.117-.242.121.242.266.035-.191.192.046.261zM8.734 11.777l-.238.125.047-.261-.195-.192.27-.035.116-.242.121.242.266.035-.191.192.043.261zM10.77 11.777l-.239.125.043-.261-.191-.192.265-.035.122-.242.117.242.27.035-.196.192.047.261zM12.805 11.777l-.242.125.046-.261-.191-.192.266-.035.12-.242.118.242.27.035-.196.192.047.261z"/></svg>