<svg xmlns="http://www.w3.org/2000/svg" width="40" height="40" version="1.0" viewBox="0 0 30 30"><defs><clipPath id="a"><path d="M2.348 5.367h25.406V11H2.348Zm0 0"/></clipPath><clipPath id="b"><path d="M2.348 17h25.406v6.512H2.348Zm0 0"/></clipPath><clipPath id="c"><path d="M2.348 10h25.406v8H2.348Zm0 0"/></clipPath><clipPath id="d"><path d="M2.348 11h25.406v6H2.348Zm0 0"/></clipPath></defs><g clip-path="url(#a)"><path fill="#0099B5" d="M2.355 8.156v2.793h25.391V8.156c0-1.539-1.262-2.789-2.82-2.789H5.176c-1.559 0-2.82 1.25-2.82 2.79m0 0"/></g><g clip-path="url(#b)"><path fill="#1EB53A" d="M27.746 20.719v-2.79H2.356v2.79c0 1.543 1.261 2.793 2.82 2.793h19.75c1.558 0 2.82-1.25 2.82-2.793m0 0"/></g><g clip-path="url(#c)"><path fill="#CE1126" d="M2.355 10.95h25.391v1.046H2.356Zm0 5.933h25.391v1.047H2.356Zm0 0"/></g><g clip-path="url(#d)"><path fill="#EEE" d="M2.355 14.438v2.445h25.391v-4.887H2.356Zm0 0"/></g><path fill="#FFF" d="M5.316 8.27c0-1.079.793-1.973 1.836-2.149a2.3 2.3 0 0 0-.367-.031c-1.215 0-2.203.976-2.203 2.18 0 1.203.988 2.175 2.203 2.175q.186 0 .367-.03A2.18 2.18 0 0 1 5.316 8.27m3.305 1.605-.098-.3-.101.3h-.32l.261.188-.101.3.261-.187.258.187-.101-.3.261-.188Zm1.906 0-.101-.3-.098.3h-.32l.262.188-.102.3.258-.187.261.187-.101-.3.262-.188Zm-.101-2.043-.098.3h-.32l.262.188-.102.301.258-.187.261.187-.101-.3.262-.188h-.32Zm2.008 2.043-.098-.3-.102.3h-.32l.262.188-.102.3.262-.187.258.187-.102-.3.262-.188Zm-.098-2.043-.102.3h-.32l.262.188-.102.301.262-.187.258.187-.102-.3.262-.188h-.32Zm0-1.742-.102.3h-.32l.262.188-.102.3.262-.183.258.184-.102-.3.262-.188h-.32Zm2.004 3.785-.098-.3-.101.3h-.32l.261.188-.102.3.262-.187.258.187-.102-.3.262-.188Zm-.098-2.043-.101.3h-.32l.261.188-.102.301.262-.187.258.187-.102-.3.262-.188h-.32Zm0-1.742-.101.3h-.32l.261.188-.102.3.262-.183.258.184-.102-.3.262-.188h-.32Zm2.004 3.785-.101-.3-.098.3h-.32l.261.188-.101.3.258-.187.261.187-.101-.3.261-.188Zm-.101-2.043-.098.3h-.32l.261.188-.101.301.258-.187.261.187-.101-.3.261-.188h-.32Zm0-1.742-.098.3h-.32l.261.188-.101.3.258-.183.261.184-.101-.3.261-.188h-.32Zm0 0"/></svg>