<svg xmlns="http://www.w3.org/2000/svg" width="40" height="40" version="1.0" viewBox="0 0 30 30"><defs><clipPath id="a"><path d="M2.45 5.457h23.952v17.422H2.45Zm0 0"/></clipPath></defs><g clip-path="url(#a)"><path fill="#DA251D" d="M23.734 5.457H5.121a2.67 2.67 0 0 0-2.66 2.68v12.058c0 1.48 1.191 2.684 2.66 2.684h18.613c1.47 0 2.657-1.203 2.657-2.684V8.137c0-1.48-1.188-2.68-2.657-2.68m0 0"/></g><path fill="#FF0" d="m15.59 12.852-1.164-3.614-1.164 3.614h-3.77l3.051 2.234-1.168 3.613 3.05-2.234 3.052 2.234-1.165-3.613 3.051-2.234Zm0 0"/></svg>