<svg id="Слой_1" data-name="Слой 1" xmlns="http://www.w3.org/2000/svg" xmlns:xlink="http://www.w3.org/1999/xlink" viewBox="0 0 549.01 77.22"><defs><style>.cls-1{fill:url(#Безымянный_градиент_235);}</style><linearGradient id="Безымянный_градиент_235" x1="14.75" y1="376.7" x2="563.76" y2="376.7" gradientUnits="userSpaceOnUse"><stop offset="0" stop-color="#fff"/><stop offset="0.26" stop-color="#b1acd2"/><stop offset="0.48" stop-color="#6a60aa"/></linearGradient></defs><path class="cls-1" d="M88.17,338.51,83.3,350.57H58.93V415.1H44V350.57H19.62l-4.87-12.06ZM76.69,414.67l36.82-76.58h.32l36.82,76.58H135.71L113.83,370.4h-.32L91.63,414.67ZM218.33,403V415.1h-58.8V338.3h14.62V403Zm11-52.47V338.51h55.55l-4.87,12.06Zm0,64.53V370.51h49.27v11.2H244v21.65h40.93l-3.79,9.07-.32.53-.76,2.14Zm67.47.21V338.62a.25.25,0,0,0,.16-.05.2.2,0,0,1,.16-.06l58.48,48.75h.1a.28.28,0,0,0,.11-.22V338.51h13.54V415.1c0,.21-.07.17-.22-.11l-58.8-46.93h-.11c0,.07,0,.1-.05.1s0,.08,0,.22v46.93Zm153.33-76.8-4.87,12.06H420.93V415.1H406V350.57H381.62l-4.87-12.06ZM478,415H463.06V338.3H478Zm51.87-76.69q8.45,0,14.18.21a42.09,42.09,0,0,1,9.53,1.28,12,12,0,0,1,5.85,3.36,14.52,14.52,0,0,1,3,6.51,55,55,0,0,1,1.14,10.72q.17,6.51.16,15.89,0,9.71-.22,16.32a59.44,59.44,0,0,1-1.19,10.93,14.62,14.62,0,0,1-3,6.62,12.33,12.33,0,0,1-5.85,3.41,37.92,37.92,0,0,1-9.53,1.28c-3.82.11-8.52.16-14.07.16s-10.27-.05-14.13-.16a37.46,37.46,0,0,1-9.53-1.28,12,12,0,0,1-5.74-3.41,14.59,14.59,0,0,1-2.93-6.62,61.55,61.55,0,0,1-1.08-10.93q-.16-6.61-.16-16.32,0-9.39.16-15.89a59,59,0,0,1,1.08-10.72,14.48,14.48,0,0,1,2.93-6.51,11.59,11.59,0,0,1,5.74-3.36,41.44,41.44,0,0,1,9.53-1.28Q521.53,338.3,529.87,338.3Zm-.22,64h1c3.18,0,5.85-.06,8-.16a18.52,18.52,0,0,0,5.3-.91,6.55,6.55,0,0,0,3.2-2.35,10.76,10.76,0,0,0,1.62-4.53,49.1,49.1,0,0,0,.54-7.47q.06-4.53.06-11.14t-.06-10.88a42.79,42.79,0,0,0-.59-7.26,11.43,11.43,0,0,0-1.63-4.42,6.27,6.27,0,0,0-3.24-2.29,18.83,18.83,0,0,0-5.47-.86c-2.21-.07-4.93-.1-8.18-.1s-6.1,0-8.34.1a19.51,19.51,0,0,0-5.57.86,6.78,6.78,0,0,0-3.41,2.34,10.83,10.83,0,0,0-1.74,4.53,48.4,48.4,0,0,0-.65,7.42q-.11,4.47-.11,11.09,0,9.71.28,15c.17,3.52.84,6.09,2,7.73a7.28,7.28,0,0,0,5.47,2.88,101.54,101.54,0,0,0,10.66.43Z" transform="translate(-14.75 -338.09)"/><text x="-14.75" y="-338.09"/></svg>